<?xml version="1.0" standalone="no"?>
<!DOCTYPE svg PUBLIC "-//W3C//DTD SVG 20010904//EN"
 "http://www.w3.org/TR/2001/REC-SVG-20010904/DTD/svg10.dtd">
<svg version="1.0" xmlns="http://www.w3.org/2000/svg"
 width="1500.000000pt" height="1500.000000pt" viewBox="0 0 1500.000000 1500.000000"
 preserveAspectRatio="xMidYMid meet">
<metadata>
Created by potrace 1.11, written by Peter Selinger 2001-2013
</metadata>
<g transform="translate(0.000000,1500.000000) scale(0.100000,-0.100000)"
fill="#000000" stroke="none">
<path d="M5431 13054 c-85 -18 -180 -64 -224 -108 -112 -111 -159 -306 -108
-449 24 -69 45 -97 124 -164 104 -88 226 -136 432 -172 33 -6 74 -13 90 -16
95 -18 277 6 372 49 105 49 219 191 237 298 16 88 -33 251 -95 322 -52 59
-180 145 -257 173 -172 63 -444 95 -571 67z"/>
<path d="M12700 12494 c-19 -7 -43 -16 -52 -20 -22 -8 -23 -47 -2 -64 8 -8 29
-14 47 -15 18 -2 48 -7 67 -12 60 -17 78 30 32 82 -33 37 -54 44 -92 29z m38
-33 c17 -11 12 -43 -8 -49 -13 -4 -13 -3 -2 11 25 30 -18 53 -46 25 -8 -8 -12
-9 -12 -1 0 20 44 29 68 14z"/>
<path d="M11010 12345 c-11 -13 -15 -13 -22 -3 -6 10 -12 9 -23 -6 -8 -11 -15
-16 -15 -12 0 5 -11 1 -25 -8 -14 -9 -30 -14 -35 -11 -5 3 -12 0 -16 -6 -5 -8
-3 -9 6 -4 9 5 11 4 6 -3 -4 -7 -14 -12 -22 -12 -8 0 -14 -5 -14 -12 0 -6 -3
-9 -6 -6 -9 10 -74 -64 -67 -76 4 -6 -1 -5 -11 3 -9 8 -16 10 -15 5 4 -23 -2
-55 -10 -50 -4 3 -8 -5 -7 -17 1 -12 -3 -25 -8 -29 -5 -3 -11 -17 -13 -30 -2
-18 -1 -20 7 -8 5 8 10 11 10 5 -1 -5 -7 -18 -15 -28 -15 -21 -9 -51 8 -40 6
3 3 -4 -6 -18 -22 -30 -21 -40 1 -33 9 4 5 -2 -10 -13 -22 -15 -25 -22 -15
-38 9 -17 8 -18 -5 -8 -12 10 -15 10 -15 -5 0 -9 5 -21 11 -25 6 -5 -1 -7 -17
-4 -15 2 -30 0 -34 -6 -3 -5 -2 -7 3 -4 6 3 16 2 24 -4 12 -7 12 -9 -3 -9 -10
0 -17 -6 -15 -12 2 -7 -2 -13 -7 -13 -5 0 -8 6 -7 14 2 8 -1 10 -8 6 -7 -4
-10 -20 -8 -36 3 -15 1 -26 -4 -23 -4 3 -8 0 -8 -7 0 -8 -5 -7 -17 2 -16 12
-17 12 -6 -2 10 -12 10 -18 0 -29 -8 -9 -9 -11 0 -6 6 3 14 2 18 -4 3 -5 2
-10 -3 -10 -6 0 -7 -14 -2 -34 4 -19 3 -41 -3 -52 -10 -18 -9 -18 8 -4 17 14
18 13 12 -2 -3 -10 -1 -20 4 -24 6 -3 9 -15 6 -25 -3 -11 -1 -19 4 -19 5 0 9
-7 9 -16 0 -8 4 -13 9 -10 5 4 11 2 13 -3 4 -11 78 -22 78 -11 0 4 7 11 16 14
10 4 13 2 8 -7 -5 -9 -4 -9 7 1 7 6 21 12 31 12 10 0 18 4 18 9 0 7 30 21 50
24 12 1 48 47 37 47 -7 0 -8 3 -2 8 6 4 16 15 24 25 12 15 11 17 -10 16 -13 0
-18 -3 -11 -6 9 -3 3 -14 -17 -34 -31 -29 -48 -38 -36 -19 3 6 1 10 -4 10 -6
0 -11 5 -11 11 0 8 4 8 15 -1 12 -10 17 -6 29 23 12 29 18 35 36 30 21 -5 22
-3 16 33 -4 21 -7 45 -8 52 -1 6 -6 12 -11 12 -6 0 -8 3 -4 6 7 8 -15 33 -25
28 -3 -2 -1 7 5 20 7 15 14 20 19 14 8 -15 33 26 111 182 34 69 64 127 67 130
3 3 15 21 27 42 27 46 33 96 13 108 -10 7 -11 10 -2 10 6 0 12 5 12 11 0 5 -4
7 -10 4 -5 -3 -10 1 -10 10 0 9 -4 13 -10 10 -5 -3 -10 0 -10 7 0 9 -3 9 -10
-2 -7 -11 -10 -11 -10 -2 0 10 -5 10 -21 1 -15 -8 -19 -8 -15 0 11 17 -10 13
-24 -4z m23 -60 c-3 -9 -8 -14 -10 -11 -3 3 -2 9 2 15 9 16 15 13 8 -4z m-23
-5 c0 -5 -5 -10 -11 -10 -5 0 -7 5 -4 10 3 6 8 10 11 10 2 0 4 -4 4 -10z m40
-80 c0 -5 -2 -10 -4 -10 -3 0 -8 5 -11 10 -3 6 -1 10 4 10 6 0 11 -4 11 -10z
m-160 -40 c0 -5 -5 -10 -11 -10 -5 0 -7 5 -4 10 3 6 8 10 11 10 2 0 4 -4 4
-10z m145 0 c3 -6 -1 -7 -9 -4 -18 7 -21 14 -7 14 6 0 13 -4 16 -10z m-22 -27
c-3 -7 -6 -13 -8 -13 -2 0 -5 6 -8 13 -3 8 1 14 8 14 7 0 11 -6 8 -14z m-19
-55 c-3 -4 -9 -8 -15 -8 -5 0 -9 4 -9 8 0 5 7 9 15 9 8 0 12 -4 9 -9z m-124
-18 c0 -5 -5 -10 -11 -10 -5 0 -7 5 -4 10 3 6 8 10 11 10 2 0 4 -4 4 -10z m97
-6 c-3 -3 -12 -4 -19 -1 -8 3 -5 6 6 6 11 1 17 -2 13 -5z m-37 -14 c0 -14 -18
-21 -25 -10 -4 6 -11 7 -17 4 -6 -4 -8 -3 -5 2 7 12 47 15 47 4z m-67 -15 c-3
-9 -8 -14 -10 -11 -3 3 -2 9 2 15 9 16 15 13 8 -4z m45 -30 c-3 -3 -9 2 -12
12 -6 14 -5 15 5 6 7 -7 10 -15 7 -18z m-13 -275 c2 -11 7 -25 11 -32 4 -7 3
-8 -4 -4 -7 4 -20 -6 -32 -26 -12 -20 -20 -27 -20 -16 0 9 -3 18 -7 21 -5 2
-3 3 3 1 6 -1 16 7 23 18 11 18 10 18 -11 7 -22 -11 -22 -11 -7 7 30 35 29 41
-4 37 -28 -3 -29 -2 -9 7 12 5 22 14 22 20 0 18 31 -17 35 -40z m-80 -41 c3
-3 -6 -5 -19 -5 -14 1 -28 4 -31 7 -3 3 6 5 19 5 14 -1 28 -4 31 -7z m-48 -35
c2 -16 1 -16 -3 -1 -3 9 -9 15 -14 12 -5 -3 -11 -1 -14 4 -4 5 2 8 11 7 10 -2
19 -11 20 -22z m-13 -22 c3 -5 -1 -9 -9 -9 -8 0 -15 4 -15 9 0 4 4 8 9 8 6 0
12 -4 15 -8z"/>
<path d="M12251 12348 c-47 -16 -127 -99 -181 -188 -85 -140 -160 -223 -340
-375 -58 -48 -110 -93 -116 -99 -6 -6 -30 -27 -54 -46 -101 -81 -160 -134
-160 -142 0 -4 -6 -8 -14 -8 -8 0 -28 -16 -45 -35 -17 -20 -31 -33 -31 -29 0
4 -9 -1 -20 -11 -11 -10 -17 -21 -15 -25 3 -5 -4 -6 -15 -3 -16 4 -39 -13 -97
-73 -43 -44 -77 -82 -78 -86 0 -3 -4 -10 -9 -15 -5 -5 -6 -2 -1 6 5 9 3 12 -6
9 -8 -3 -13 -12 -13 -21 1 -9 -1 -16 -5 -15 -20 2 -35 -6 -71 -38 -22 -20 -37
-41 -33 -47 4 -6 1 -7 -8 -1 -17 10 -49 6 -67 -8 -9 -8 -11 -7 -7 4 3 8 -3 23
-15 33 -11 10 -20 22 -20 28 0 5 -12 32 -26 61 -45 90 -129 143 -243 153 -152
13 -248 -53 -336 -227 -47 -93 -53 -116 -98 -380 -20 -114 -89 -250 -127 -250
-5 0 -10 -4 -10 -10 0 -5 -17 -17 -37 -27 -52 -24 -148 -22 -247 6 -196 56
-240 19 -271 -226 -4 -26 -8 -59 -10 -73 -2 -14 -7 -45 -10 -70 -3 -25 -8 -58
-11 -75 -3 -16 -7 -43 -10 -60 -20 -129 -20 -130 -55 -100 -17 14 -55 32 -86
41 -50 15 -58 15 -96 0 -46 -18 -82 -62 -98 -120 -13 -46 3 -105 42 -162 37
-55 37 -68 0 -61 -16 3 -31 3 -35 0 -3 -3 -29 -7 -58 -9 -58 -4 -134 -10 -218
-19 -30 -3 -77 -7 -105 -9 -27 -3 -50 -5 -50 -6 0 -2 -39 -9 -90 -15 -100 -12
-110 -13 -110 -15 0 -2 -30 -6 -119 -15 -33 -3 -63 -8 -67 -10 -3 -3 -24 -7
-45 -11 -22 -3 -56 -9 -76 -14 l-36 -8 -1 60 c0 144 -116 317 -233 349 -70 18
-80 20 -148 20 -98 -1 -163 -26 -265 -105 -22 -17 -46 -35 -53 -41 -34 -26
-137 -176 -193 -282 -34 -65 -63 -119 -64 -120 -1 -2 -26 2 -56 8 -46 10 -61
9 -104 -8 -69 -26 -99 -70 -92 -138 l5 -51 -66 -24 c-37 -13 -69 -25 -72 -25
-14 -2 -107 -40 -117 -48 -7 -5 -13 -7 -13 -4 0 3 -17 -1 -37 -10 -21 -8 -49
-17 -63 -20 -13 -2 -27 -7 -30 -11 -3 -4 -12 -8 -20 -10 -9 -1 -4 7 10 19 14
11 19 17 11 13 -9 -4 -19 0 -28 11 -7 11 -13 14 -13 9 0 -6 6 -16 13 -23 10
-11 7 -12 -13 -6 -23 7 -24 7 -10 -11 14 -17 14 -18 -2 -6 -9 8 -21 11 -26 8
-5 -3 -9 1 -9 8 0 8 6 12 13 9 6 -2 15 0 19 6 4 7 0 8 -11 4 -10 -4 -15 -2
-11 4 3 5 0 10 -8 10 -8 0 -12 -4 -9 -9 3 -4 0 -8 -6 -8 -6 0 -8 -4 -5 -10 3
-5 1 -10 -5 -10 -7 0 -10 6 -7 13 3 7 -4 19 -15 26 -17 11 -18 10 -8 -8 9 -17
8 -20 -5 -15 -8 4 -15 10 -15 16 0 5 -4 7 -9 3 -13 -7 -92 25 -111 45 -8 9
-11 10 -6 3 12 -19 6 -17 -70 23 -171 91 -323 218 -432 361 -20 26 -43 54 -50
62 -7 7 -11 20 -8 28 3 8 2 12 -3 9 -7 -5 -71 83 -71 98 0 20 -141 166 -181
186 -93 48 -177 19 -220 -75 -48 -103 -12 -207 126 -370 64 -75 65 -74 -25
-102 -73 -22 -297 -27 -400 -8 -142 26 -386 89 -445 115 -11 4 -83 31 -160 60
-77 28 -149 55 -160 60 -81 36 -395 129 -495 146 -14 3 -33 7 -42 10 -10 3
-29 7 -43 10 -142 24 -235 46 -389 89 -49 13 -93 22 -97 19 -5 -3 -9 0 -9 7 0
7 -3 9 -7 6 -3 -4 -17 0 -31 9 -13 9 -32 14 -43 11 -10 -3 -17 -1 -16 3 1 4
-1 8 -6 9 -4 0 -34 14 -67 31 -34 17 -66 28 -72 24 -6 -4 -8 -3 -5 3 6 10 -43
37 -58 33 -4 -1 -15 8 -24 19 -20 23 -47 29 -35 9 4 -8 3 -10 -2 -5 -5 5 -9
13 -9 19 0 6 -9 16 -20 22 -11 6 -24 17 -28 24 -4 6 -15 12 -22 12 -8 0 -15 5
-15 10 0 6 -7 10 -15 10 -8 0 -14 6 -13 13 2 7 -8 12 -25 12 -25 -1 -26 1 -12
11 19 14 5 27 -22 18 -15 -5 -15 -4 -3 5 13 9 11 14 -11 35 -15 14 -30 22 -35
18 -4 -4 -4 -2 0 5 4 7 -4 29 -18 50 -14 21 -37 70 -52 108 -29 75 -57 119
-68 107 -4 -3 -4 1 0 11 4 11 0 19 -10 23 -9 3 -16 11 -16 18 0 6 -18 30 -40
54 -22 24 -40 45 -40 48 0 16 -246 265 -254 257 -3 -4 -6 -1 -6 5 0 18 -141
123 -209 155 -60 29 -67 30 -110 18 -78 -21 -129 -51 -146 -88 -15 -31 -15
-36 2 -71 21 -44 72 -80 156 -111 116 -43 228 -101 273 -143 l45 -41 -7 -92
c-8 -113 6 -225 52 -415 41 -169 185 -608 272 -827 33 -84 58 -153 55 -153 -3
0 -39 9 -81 19 -43 11 -118 26 -167 35 -109 18 -178 45 -267 103 -112 73 -170
153 -219 302 -71 215 -124 284 -237 313 -37 10 -80 18 -95 18 -82 0 -181 -92
-173 -163 2 -15 -1 -24 -6 -21 -9 6 -1 -113 9 -130 4 -6 8 -16 9 -23 6 -38 27
-82 36 -77 7 4 8 2 4 -5 -10 -16 25 -112 37 -104 6 3 7 1 4 -4 -6 -10 33 -130
87 -263 52 -129 140 -230 257 -297 41 -23 163 -76 273 -119 223 -86 280 -114
382 -189 146 -109 218 -202 325 -420 55 -112 131 -323 144 -397 3 -18 12 -61
20 -94 25 -110 38 -272 22 -291 -6 -9 -5 -18 4 -29 7 -9 14 -26 15 -38 1 -11
5 -37 8 -56 4 -19 7 -41 8 -47 1 -7 6 -13 11 -13 5 0 7 -6 4 -14 -3 -8 0 -20
8 -26 8 -6 11 -19 8 -27 -5 -12 -3 -14 7 -8 9 5 11 4 6 -4 -4 -6 0 -14 8 -17
9 -3 14 -10 11 -14 -3 -4 2 -11 11 -14 9 -4 14 -9 11 -13 -4 -3 1 -12 11 -19
9 -7 17 -18 17 -26 0 -7 5 -13 12 -13 6 0 14 -3 18 -7 4 -3 0 -6 -8 -4 -22 3
-48 27 -41 38 3 5 -2 8 -12 6 -11 -2 -18 2 -17 9 2 8 -4 10 -15 7 -13 -5 -14
-4 -3 4 10 8 11 14 1 28 -10 17 -11 17 -6 1 4 -11 2 -16 -5 -12 -6 4 -8 14 -5
22 4 9 2 11 -6 7 -7 -4 -8 -3 -4 4 5 8 1 10 -9 5 -12 -4 -13 -8 -5 -13 6 -4
12 -14 14 -23 2 -19 40 -57 56 -57 5 0 10 -4 10 -10 0 -5 12 -16 28 -24 15 -8
23 -15 17 -16 -5 0 17 -13 50 -29 33 -16 63 -27 67 -25 5 3 8 1 8 -4 0 -9 53
-32 217 -91 245 -88 326 -147 474 -342 89 -120 184 -209 261 -247 71 -35 141
-53 291 -77 68 -11 94 -17 164 -37 l72 -21 30 -64 c17 -35 31 -69 31 -76 -1
-19 -20 -39 -97 -100 -40 -32 -83 -68 -96 -80 -12 -12 -52 -48 -89 -80 -135
-119 -304 -294 -435 -453 -10 -12 -36 -43 -58 -69 -22 -27 -53 -67 -70 -89
-16 -23 -33 -42 -37 -44 -5 -2 -8 -10 -8 -17 0 -7 -3 -15 -7 -17 -7 -3 -60
-78 -73 -103 -3 -5 -24 -39 -47 -75 -23 -36 -42 -68 -43 -72 0 -5 -16 -33 -35
-63 -20 -30 -33 -55 -29 -55 4 0 1 -8 -7 -17 -39 -47 -148 -318 -165 -410 -1
-6 -7 -27 -12 -45 -6 -18 -13 -49 -16 -68 -3 -19 -8 -46 -11 -60 -18 -81 -24
-302 -11 -405 10 -77 45 -227 57 -240 5 -5 9 -17 9 -27 0 -10 4 -26 9 -36 5
-9 33 -66 62 -127 30 -60 56 -112 59 -115 4 -3 26 -32 51 -65 74 -100 176
-209 264 -280 20 -16 42 -36 50 -43 47 -43 220 -162 235 -162 5 0 10 -4 10 -8
0 -9 40 -30 50 -28 3 0 16 -9 29 -21 13 -12 28 -20 32 -17 4 2 10 1 13 -4 4
-7 114 -63 181 -93 27 -12 79 -32 85 -33 3 -1 11 -5 18 -10 7 -4 23 -9 35 -11
27 -4 171 -52 215 -72 19 -8 36 -12 39 -9 3 3 15 -1 25 -9 11 -7 26 -11 32 -9
7 3 32 -3 56 -11 25 -9 61 -18 80 -21 19 -4 37 -9 40 -13 3 -3 10 -7 15 -7 6
-1 29 -5 53 -8 113 -16 127 -19 132 -25 3 -3 14 -6 25 -5 11 0 24 -2 30 -5 5
-3 16 -6 25 -7 26 -3 153 -16 195 -20 22 -2 51 -5 65 -8 52 -9 218 -27 287
-31 40 -2 77 -6 83 -10 5 -3 10 -1 10 5 0 6 5 8 12 4 11 -7 184 -13 408 -13
116 0 198 3 410 14 63 3 151 8 195 10 44 2 80 4 80 5 0 1 18 3 40 5 22 1 69 6
105 10 66 7 93 9 190 19 30 3 78 8 105 11 28 2 61 7 75 10 25 6 81 12 175 19
61 5 145 17 220 30 17 4 46 9 65 12 19 3 49 9 65 12 17 3 42 6 58 6 15 1 27 3
27 6 0 3 8 6 18 6 43 2 137 17 214 35 45 10 97 21 113 24 58 9 81 13 150 28
38 9 73 13 77 11 4 -3 8 0 8 6 0 6 8 10 18 9 9 -1 19 0 22 1 14 5 48 11 75 14
17 1 36 6 43 10 7 4 32 9 56 10 24 2 48 6 54 9 5 4 27 9 48 13 22 3 44 9 49
12 11 7 14 8 60 17 46 9 99 26 113 38 6 5 12 6 12 2 0 -4 6 -2 13 4 8 6 17 8
20 4 4 -3 7 -1 7 6 0 8 7 11 15 7 8 -3 15 -1 15 5 0 6 4 8 10 4 5 -3 25 1 44
9 19 8 37 12 40 8 3 -3 6 -1 6 5 0 13 58 35 71 27 5 -3 9 0 9 7 0 7 3 10 6 6
3 -3 29 4 58 17 28 12 61 22 74 21 12 -1 22 3 22 8 0 5 7 7 15 3 8 -3 15 -1
15 5 0 6 5 7 10 4 6 -3 10 -2 10 2 0 5 8 9 18 10 9 1 35 10 57 19 22 10 43 17
48 16 4 -1 7 2 7 8 0 5 6 10 13 10 8 0 54 16 103 35 49 20 97 37 107 38 9 0
17 4 17 8 0 4 13 9 30 12 26 6 134 52 280 120 25 11 47 21 50 22 3 0 14 6 25
12 11 6 23 11 28 12 4 0 29 10 55 22 26 11 52 22 59 23 7 1 16 5 19 9 4 4 16
7 26 7 10 0 18 4 18 8 0 5 6 9 13 9 7 0 36 11 64 26 28 14 54 23 57 20 3 -4 6
-1 6 5 0 7 4 12 9 12 6 0 48 18 95 40 47 22 87 40 88 39 2 -2 21 9 43 22 46
29 106 58 119 57 5 0 12 5 15 10 3 5 22 17 41 27 19 10 78 43 130 74 52 30 98
55 103 53 4 -1 7 2 7 7 0 10 39 27 53 23 4 -1 7 2 7 8 0 5 21 20 48 33 91 46
112 59 112 68 0 5 4 9 9 9 12 0 215 123 219 132 2 5 8 8 12 8 5 0 66 38 135
85 70 47 128 85 130 85 2 0 18 13 35 29 18 16 71 55 118 87 48 33 89 61 92 64
3 3 30 23 60 44 30 22 57 43 58 48 2 4 8 8 13 8 5 0 19 9 31 19 13 11 55 45
93 76 82 66 214 186 298 267 32 32 60 58 62 58 2 0 24 21 49 47 24 27 78 83
120 127 42 43 76 80 76 82 0 2 15 19 33 37 17 19 43 49 57 67 14 18 32 40 40
49 32 33 130 168 130 179 0 7 4 12 9 12 4 0 27 30 51 68 24 37 50 78 59 92 29
47 61 105 104 190 23 47 46 88 50 91 5 3 7 8 6 10 -1 2 3 20 10 39 6 19 12 37
12 40 0 3 8 13 16 23 9 9 13 17 10 17 -3 0 5 27 18 59 14 32 27 74 30 91 3 18
10 41 16 51 5 11 8 19 5 19 -2 0 0 17 6 38 29 105 43 362 25 456 -4 16 -9 50
-13 75 -4 25 -9 51 -12 56 -4 6 -7 15 -8 20 -1 6 -8 30 -15 55 -7 25 -13 48
-13 52 -1 3 -4 10 -8 14 -5 4 -8 14 -8 23 0 25 -93 211 -133 269 -21 29 -35
52 -32 52 3 0 -3 8 -12 18 -10 11 -27 31 -37 46 -47 65 -139 161 -214 224 -43
35 -42 32 -23 122 31 140 33 303 6 455 -26 143 -113 379 -158 427 -17 19 -37
56 -37 68 0 9 -19 35 -48 66 -7 8 -11 14 -8 14 5 0 -57 71 -104 119 -25 25
-114 103 -135 119 -44 31 -244 132 -262 132 -5 0 -37 9 -70 20 -34 11 -76 22
-95 25 -18 2 -55 8 -83 13 -87 14 -242 6 -322 -17 -17 -5 -34 -7 -37 -3 -3 3
-6 1 -6 -4 0 -5 -8 -10 -17 -10 -21 -1 -108 -20 -108 -24 0 -1 -9 -3 -19 -5
-11 -2 -29 -6 -41 -9 -23 -6 -216 83 -292 135 -115 79 -166 166 -170 290 -2
74 20 201 50 284 14 40 15 40 66 39 28 -1 58 -7 66 -14 8 -7 15 -10 15 -6 0 3
11 1 25 -4 16 -6 26 -6 31 1 3 6 12 8 19 5 10 -3 12 2 9 20 -3 16 -1 23 6 19
11 -7 0 27 -21 68 -24 44 -89 94 -116 89 -7 -2 -13 1 -13 7 0 5 42 91 93 192
51 101 113 237 137 303 84 227 315 532 535 708 166 132 424 260 550 272 35 4
68 -3 133 -26 187 -66 292 -15 292 140 0 107 -75 155 -215 140 -94 -10 -544
-124 -685 -173 -102 -36 -322 -141 -328 -157 -2 -4 -8 -6 -13 -2 -5 3 -9 0 -9
-5 0 -6 -4 -11 -10 -11 -11 0 -127 -78 -152 -102 -10 -10 -22 -18 -26 -18 -4
0 -57 -48 -118 -107 -130 -126 -186 -158 -269 -151 -58 5 -117 37 -133 73 -18
40 15 191 45 202 6 3 9 12 6 20 -4 9 -2 14 3 10 6 -3 16 4 24 16 12 21 12 21
-6 7 -14 -12 -14 -8 5 18 12 17 25 32 28 32 3 0 0 -7 -7 -15 -7 -8 -10 -15 -7
-15 2 0 17 17 33 38 24 32 25 34 4 17 l-23 -20 18 27 c9 15 22 25 28 21 6 -4
8 0 4 10 -4 12 -2 14 11 10 9 -3 14 -3 10 2 -4 4 0 14 10 22 9 8 11 12 5 8 -7
-3 -13 -1 -13 4 0 6 9 11 20 11 14 0 20 6 18 16 -2 13 10 26 40 41 2 0 5 9 6
20 2 10 7 18 12 18 5 0 29 22 54 50 146 161 245 252 474 432 138 109 268 216
289 237 112 117 127 262 35 329 -32 24 -117 31 -167 15z m-706 -908 c3 -5 1
-10 -4 -10 -6 0 -11 5 -11 10 0 6 2 10 4 10 3 0 8 -4 11 -10z m-145 -36 c0 -8
-19 -13 -24 -6 -3 5 1 9 9 9 8 0 15 -2 15 -3z m47 -29 c0 -8 -4 -12 -9 -9 -5
3 -6 10 -3 15 9 13 12 11 12 -6z m-426 -228 c-10 -9 -11 -8 -5 6 3 10 9 15 12
12 3 -3 0 -11 -7 -18z m1409 -7 c0 -5 -5 -10 -11 -10 -5 0 -7 5 -4 10 3 6 8
10 11 10 2 0 4 -4 4 -10z m-39 -23 c-10 -9 -11 -8 -5 6 3 10 9 15 12 12 3 -3
0 -11 -7 -18z m-1361 5 c0 -5 -7 -9 -15 -9 -8 0 -12 4 -9 9 3 4 9 8 15 8 5 0
9 -4 9 -8z m-267 -17 c-3 -9 -8 -14 -10 -11 -3 3 -2 9 2 15 9 16 15 13 8 -4z
m67 -5 c0 -5 -2 -10 -4 -10 -3 0 -8 5 -11 10 -3 6 -1 10 4 10 6 0 11 -4 11
-10z m1494 -2 c-5 -8 -1 -9 12 -4 14 5 16 4 7 -5 -6 -6 -16 -8 -22 -5 -14 9
-14 26 0 26 5 0 7 -5 3 -12z m-21 -18 c3 -11 1 -18 -4 -14 -5 3 -9 12 -9 20 0
20 7 17 13 -6z m-40 -5 c-3 -9 -8 -14 -10 -11 -3 3 -2 9 2 15 9 16 15 13 8 -4z
m-1475 -20 c-3 -3 -9 2 -12 12 -6 14 -5 15 5 6 7 -7 10 -15 7 -18z m-82 3 c4
-7 4 -10 -1 -6 -4 4 -15 2 -24 -5 -14 -11 -14 -10 -2 6 16 20 18 21 27 5z
m1539 -23 c2 -14 0 -27 -3 -29 -4 -2 -7 11 -8 30 -1 38 7 38 11 -1z m45 0 c0
-5 -5 -3 -10 5 -5 8 -10 20 -10 25 0 6 5 3 10 -5 5 -8 10 -19 10 -25z m-1305
15 c-3 -5 -12 -10 -18 -10 -7 0 -6 4 3 10 19 12 23 12 15 0z m-58 -7 c-4 -3
-2 -11 3 -18 7 -8 6 -12 -3 -12 -7 0 -14 9 -14 19 -1 10 3 18 9 18 6 0 8 -3 5
-7z m1285 -10 c-6 -3 -10 -9 -7 -14 4 -5 -1 -6 -9 -3 -11 4 -14 0 -11 -15 3
-14 0 -18 -12 -14 -12 5 -12 7 -1 14 7 5 9 9 3 9 -5 0 1 9 15 20 14 10 27 16
30 13 3 -3 -1 -8 -8 -10z m-1425 -18 c0 -8 -4 -12 -9 -9 -5 3 -6 10 -3 15 9
13 12 11 12 -6z m187 7 c3 -5 -1 -9 -9 -9 -8 0 -12 4 -9 9 3 4 7 8 9 8 2 0 6
-4 9 -8z m-93 -29 c12 -16 12 -17 -2 -6 -9 7 -20 9 -24 5 -5 -4 -5 -1 -1 6 9
16 11 15 27 -5z m-91 -9 c0 -8 -19 -13 -24 -6 -3 5 1 9 9 9 8 0 15 -2 15 -3z
m137 -11 c0 -9 -4 -10 -14 -2 -7 6 -13 12 -13 14 0 1 6 2 13 2 8 0 14 -6 14
-14z m40 11 c-3 -3 -12 -4 -19 -1 -8 3 -5 6 6 6 11 1 17 -2 13 -5z m1183 -4
c0 -5 -2 -10 -4 -10 -3 0 -8 5 -11 10 -3 6 -1 10 4 10 6 0 11 -4 11 -10z
m-1485 -49 c3 -5 2 -12 -3 -15 -5 -3 -9 1 -9 9 0 17 3 19 12 6z m229 -12 c-10
-12 -18 -24 -17 -28 1 -3 0 -8 -2 -9 -2 -2 -3 3 -1 11 2 16 25 47 34 47 3 0
-3 -9 -14 -21z m-260 3 c3 -5 -1 -9 -9 -9 -8 0 -12 4 -9 9 3 4 7 8 9 8 2 0 6
-4 9 -8z m305 -5 c-2 -1 -13 -9 -24 -17 -19 -14 -19 -14 -6 3 7 9 18 17 24 17
6 0 8 -1 6 -3z m-308 -34 c13 -16 12 -17 -3 -4 -17 13 -22 21 -14 21 2 0 10
-8 17 -17z m-66 -1 c-3 -3 0 -11 6 -19 17 -20 5 -16 -14 5 -15 16 -15 19 -2
19 8 0 13 -3 10 -5z m330 -21 c-9 -8 -36 -10 -30 -2 2 4 11 8 20 8 8 0 13 -3
10 -6z m18 -26 c-3 -9 -8 -14 -10 -11 -3 3 -2 9 2 15 9 16 15 13 8 -4z m-393
-11 c0 -8 -19 -13 -24 -6 -3 5 1 9 9 9 8 0 15 -2 15 -3z m46 -6 c3 -4 -1 -5
-10 -4 -8 1 -18 5 -22 8 -3 4 1 5 10 4 8 -1 18 -5 22 -8z m313 -2 c9 -11 9
-16 -1 -22 -7 -4 -10 -4 -6 1 4 4 3 14 -3 22 -6 7 -9 13 -6 13 2 0 10 -6 16
-14z m65 -12 c3 -8 2 -12 -4 -9 -6 3 -10 1 -10 -4 0 -6 -5 -11 -10 -11 -6 0
-5 8 2 20 15 24 14 24 22 4z m-399 -23 c3 -5 2 -12 -3 -15 -5 -3 -9 1 -9 9 0
17 3 19 12 6z m385 -25 c-4 -4 -16 -4 -26 2 -16 9 -14 10 8 9 15 -1 23 -6 18
-11z m-24 -18 c4 -7 3 -8 -4 -4 -7 4 -12 2 -12 -5 0 -7 -3 -10 -6 -6 -6 5 3
27 11 27 2 0 7 -5 11 -12z m-122 -40 c-3 -4 -11 -5 -19 -1 -21 7 -19 12 4 10
11 0 18 -5 15 -9z m71 1 c-12 -18 33 -57 60 -51 34 6 32 -14 -2 -32 -16 -8
-24 -15 -19 -16 5 0 4 -6 -2 -13 -8 -9 -8 -17 0 -27 8 -12 9 -12 4 3 -3 9 -1
17 4 17 6 0 10 7 10 15 0 8 5 15 11 15 5 0 7 -5 3 -12 -4 -7 -3 -8 5 -4 6 4 8
12 5 18 -4 6 1 8 14 4 13 -5 22 -1 26 10 5 14 4 15 -9 4 -12 -10 -15 -10 -15
4 0 13 8 15 45 12 24 -3 53 -10 63 -15 11 -6 22 -7 26 -4 3 3 6 2 6 -3 0 -5
11 -10 25 -10 38 -3 75 -31 69 -52 -5 -14 -4 -15 5 -2 9 13 16 9 48 -22 29
-30 33 -36 15 -31 -12 3 -24 13 -27 23 -8 24 -39 15 -60 -17 -11 -17 -22 -22
-36 -18 -11 4 -19 2 -19 -5 0 -6 5 -8 11 -5 6 4 9 1 8 -6 -2 -8 2 -23 8 -35
11 -19 9 -21 -19 -21 -29 0 -30 1 -12 15 16 12 16 14 2 9 -10 -4 -21 0 -25 8
-7 12 -11 11 -21 -5 -7 -12 -8 -20 -2 -20 5 0 10 5 10 11 0 5 5 7 10 4 16 -10
-9 -36 -29 -30 -9 2 -23 0 -31 -5 -13 -9 -13 -12 3 -24 24 -18 21 -29 -4 -16
-11 7 -23 9 -27 6 -3 -3 -1 -6 5 -6 5 0 10 -7 10 -15 0 -9 -6 -14 -13 -11 -7
3 -15 -1 -17 -8 -3 -8 -17 -12 -31 -11 -14 2 -24 0 -21 -5 3 -4 -2 -13 -10
-20 -12 -10 -18 -10 -30 0 -13 10 -19 10 -35 -5 -11 -10 -16 -24 -12 -33 5
-15 4 -15 -11 -3 -9 7 -17 10 -17 6 0 -4 10 -15 23 -25 12 -10 18 -22 14 -26
-4 -5 -13 -2 -18 6 -8 12 -9 11 -7 -5 2 -14 -3 -21 -19 -23 -13 -2 -23 2 -23
8 0 7 6 10 13 7 7 -3 13 3 14 14 2 18 1 18 -18 0 -13 -12 -17 -24 -13 -36 6
-15 2 -14 -27 6 -19 13 -35 27 -37 32 -2 4 -8 7 -13 7 -5 0 -4 -9 3 -19 7 -11
15 -18 18 -16 10 6 50 -25 50 -38 0 -7 -9 -13 -21 -14 -17 -2 -18 1 -9 13 9
10 9 14 1 15 -30 4 -62 20 -56 29 4 6 -11 7 -49 1 -5 0 1 -10 14 -21 13 -11
20 -23 17 -26 -3 -4 -20 5 -37 20 -17 14 -28 26 -25 26 4 0 2 7 -5 15 -7 8 -9
15 -4 15 4 0 3 5 -4 12 -7 7 -12 16 -12 21 0 5 8 1 18 -9 9 -10 17 -22 17 -28
0 -15 28 -14 31 2 1 7 0 8 -3 2 -5 -12 -24 -14 -22 -2 1 4 0 9 -1 12 -1 3 -3
17 -4 33 -2 21 2 26 15 22 18 -6 34 20 23 37 -4 6 -1 8 7 6 8 -3 13 -11 12
-17 -2 -6 2 -11 7 -11 15 0 12 16 -5 30 -8 7 -12 17 -9 22 3 5 13 1 21 -9 8
-10 12 -12 8 -5 -4 7 -2 19 5 27 9 10 7 20 -7 41 -10 16 -13 25 -7 21 7 -4 15
0 18 9 4 11 2 15 -7 11 -8 -3 -20 -1 -28 4 -12 8 -12 10 1 8 27 -3 41 1 36 10
-3 4 1 17 10 27 14 18 15 18 5 -3 -7 -14 -8 -24 -1 -28 5 -3 10 1 10 9 0 9 5
16 10 16 7 0 7 -6 1 -17 -9 -19 -11 -25 -11 -45 0 -9 -4 -8 -11 2 -9 13 -10
12 -5 -3 4 -12 2 -16 -7 -12 -6 4 -5 1 4 -7 9 -7 19 -20 22 -28 4 -8 5 -4 3 8
-5 28 3 54 15 47 4 -3 6 -11 3 -19 -3 -7 2 -13 11 -13 14 0 13 3 -1 24 -9 15
-12 32 -8 41 4 9 8 23 10 30 4 22 11 24 18 7 3 -9 2 -14 -3 -10 -5 3 -8 -3 -7
-12 2 -10 0 -20 -5 -23 -4 -3 0 -14 8 -25 15 -19 15 -19 8 4 -6 18 -4 22 6 16
8 -5 11 -5 7 0 -5 5 1 14 12 22 11 8 20 21 20 29 0 17 17 19 23 2 2 -7 3 -5 1
5 -2 14 3 17 19 13 12 -3 16 -3 9 0 -6 3 -9 11 -5 17 3 7 3 9 -2 5 -4 -4 -14
-3 -22 4 -11 8 -12 7 -7 -6 7 -17 -11 -23 -21 -6 -3 5 -12 7 -20 3 -8 -3 -15
-1 -15 5 0 11 18 11 37 -1 9 -6 11 -3 7 7 -4 10 -1 16 7 16 8 1 4 6 -9 13
l-23 13 24 11 c23 11 29 36 13 61 -7 11 -1 32 10 32 3 0 2 -5 -1 -11z m-28
-24 c0 -8 -4 -12 -9 -9 -5 3 -6 10 -3 15 9 13 12 11 12 -6z m70 9 c-3 -3 -12
-4 -19 -1 -8 3 -5 6 6 6 11 1 17 -2 13 -5z m-127 -44 c0 -5 -2 -10 -4 -10 -3
0 -8 5 -11 10 -3 6 -1 10 4 10 6 0 11 -4 11 -10z m40 6 c0 -3 -4 -8 -10 -11
-5 -3 -10 -1 -10 4 0 6 5 11 10 11 6 0 10 -2 10 -4z m-20 -40 c0 -2 -7 -7 -16
-10 -8 -3 -12 -2 -9 4 6 10 25 14 25 6z m-5 -26 c-3 -5 -12 -10 -18 -10 -7 0
-6 4 3 10 19 12 23 12 15 0z m-438 -25 c0 -8 -4 -12 -9 -9 -4 3 -8 9 -8 15 0
5 4 9 8 9 5 0 9 -7 9 -15z m63 -9 c0 -2 -7 -7 -16 -10 -8 -3 -12 -2 -9 4 6 10
25 14 25 6z m367 -2 c-3 -3 -12 -4 -19 -1 -8 3 -5 6 6 6 11 1 17 -2 13 -5z
m41 -29 c-6 -13 -18 -27 -27 -30 -12 -5 -13 -3 -4 6 6 6 9 18 6 26 -3 8 0 19
8 23 21 13 29 2 17 -25z m-58 4 c0 -14 -17 -10 -23 5 -4 10 -1 13 9 9 7 -3 14
-9 14 -14z m-437 -6 c-4 -11 -3 -14 5 -9 25 15 22 -23 -4 -50 -21 -22 -24 -24
-15 -7 6 12 16 25 21 28 17 11 11 24 -10 20 -11 -2 -23 1 -26 7 -4 6 -3 8 3 5
6 -4 13 0 17 8 3 8 8 15 10 15 3 0 2 -7 -1 -17z m42 -1 c-3 -3 -11 0 -18 7 -9
10 -8 11 6 5 10 -3 15 -9 12 -12z m65 6 c0 -4 -4 -8 -9 -8 -6 0 -12 4 -15 8
-3 5 1 9 9 9 8 0 15 -4 15 -9z m756 -23 c-34 -29 -38 -35 -27 -49 8 -9 9 -16
5 -16 -5 0 -15 9 -21 19 -11 17 -8 23 17 44 16 14 26 28 23 31 -4 3 5 6 18 6
22 -1 22 -3 -15 -35z m-882 -24 c-5 -6 -34 20 -34 30 0 5 8 1 18 -8 10 -10 17
-20 16 -22z m87 26 c-6 -8 -7 -18 -3 -22 4 -5 2 -5 -4 -2 -7 4 -14 0 -18 -8
-3 -8 3 -19 12 -24 9 -6 12 -11 7 -11 -6 0 -16 5 -23 12 -9 9 -12 9 -12 1 0
-7 5 -15 10 -18 6 -3 10 -14 9 -23 0 -14 -2 -14 -6 -2 -3 8 -12 20 -20 27 -13
10 -12 14 4 31 10 12 24 28 31 36 7 9 15 16 19 16 3 0 0 -6 -6 -13z m858 -1
c14 -8 26 -20 27 -27 1 -8 5 -29 8 -48 6 -27 4 -32 -8 -28 -9 4 -18 2 -21 -2
-9 -15 27 -22 44 -9 9 7 13 9 9 4 -4 -5 0 -15 8 -23 8 -9 12 -18 9 -21 -3 -3
-11 3 -19 13 -12 17 -14 17 -28 -4 -11 -15 -18 -19 -23 -11 -5 8 -12 7 -24 -4
-10 -9 -20 -13 -24 -10 -3 3 -12 -3 -19 -15 -7 -12 -20 -21 -28 -21 -20 -1
-52 -25 -43 -33 3 -4 1 -7 -5 -7 -19 0 -14 18 8 30 29 16 25 32 -5 18 -14 -6
-25 -17 -25 -25 0 -7 -6 -13 -12 -13 -10 0 -10 -2 -1 -8 18 -12 9 -48 -12 -44
-10 2 -14 -1 -10 -7 3 -6 1 -11 -5 -11 -7 0 -10 7 -6 15 3 8 0 15 -7 15 -9 0
-8 3 1 9 11 7 11 9 -1 14 -12 4 -14 -1 -11 -26 4 -24 2 -28 -5 -17 -9 13 -11
13 -11 -2 0 -10 -4 -18 -8 -18 -18 0 -70 -53 -65 -66 3 -8 10 -11 16 -7 6 4 7
1 2 -7 -6 -10 -11 -10 -20 3 -11 15 -14 15 -30 -3 -10 -11 -21 -17 -26 -15 -4
3 -11 -4 -14 -16 -6 -17 -9 -18 -16 -8 -4 7 -11 10 -15 6 -4 -3 -2 -12 4 -20
8 -10 6 -16 -9 -25 -10 -7 -19 -9 -19 -4 0 4 -10 8 -22 9 l-23 2 23 -19 c22
-18 31 -37 12 -25 -5 3 -10 4 -10 1 0 -2 -3 -12 -7 -21 -5 -15 -3 -16 15 -6
25 13 32 14 32 3 0 -5 -6 -9 -12 -9 -7 0 -20 -2 -28 -4 -10 -3 -14 3 -13 16 1
16 -5 20 -33 21 -30 1 -33 -1 -22 -14 8 -10 8 -13 2 -9 -15 8 -38 -18 -29 -33
3 -6 -10 1 -31 15 -20 14 -40 23 -43 20 -5 -6 3 -13 39 -35 8 -4 11 -12 7 -16
-5 -5 -11 -4 -15 1 -4 6 -11 11 -17 12 -5 1 -19 4 -30 8 -18 6 -18 5 3 -13 24
-22 31 -42 7 -22 -12 10 -18 10 -30 0 -8 -7 -12 -16 -9 -21 3 -5 0 -9 -6 -9
-7 0 -9 8 -4 23 7 22 6 22 -15 3 -22 -20 -29 -42 -9 -30 6 4 8 3 5 -4 -4 -5
-15 -9 -25 -8 -9 2 -20 -2 -24 -7 -8 -13 -40 -19 -32 -6 3 5 9 7 14 4 4 -3 11
2 14 11 3 8 10 13 15 10 5 -3 11 1 14 8 3 8 3 17 -1 19 -4 2 -1 2 7 0 9 -2 11
2 7 14 -4 9 -1 20 6 25 9 6 5 7 -10 3 -18 -5 -22 -3 -19 12 1 10 6 23 9 29 5
7 -4 11 -25 12 -26 1 -29 -1 -14 -9 11 -7 16 -17 12 -29 -4 -12 1 -22 12 -29
10 -6 13 -11 7 -11 -14 0 -64 46 -64 59 0 5 14 19 31 31 33 25 33 38 -1 20
-12 -6 -24 -9 -27 -6 -3 3 5 9 18 14 23 9 23 9 3 20 -20 10 -26 45 -11 57 4 3
5 2 2 -2 -5 -6 24 -32 38 -33 5 0 -1 14 -13 30 -12 17 -17 30 -12 30 6 0 12
-5 14 -12 3 -7 7 -6 11 5 3 9 2 17 -3 17 -13 0 -13 37 0 45 6 4 8 11 5 16 -4
5 -3 9 2 10 45 4 55 7 66 19 10 10 8 10 -10 1 -14 -7 -24 -7 -28 -1 -3 5 -13
7 -23 4 -14 -5 -14 -4 -2 4 10 8 18 7 28 -1 11 -8 13 -8 12 4 -4 26 0 40 10
34 6 -3 10 -2 10 4 0 19 -25 18 -36 -2 -10 -17 -12 -18 -17 -3 -4 10 -3 15 2
12 5 -3 12 1 15 9 5 14 9 14 38 -1 24 -12 30 -13 21 -3 -6 8 -11 18 -11 24 0
5 -6 11 -13 14 -7 2 -9 -1 -5 -8 4 -6 5 -11 2 -11 -3 0 -10 9 -16 20 -10 18
-8 19 14 10 24 -9 53 7 41 23 -3 4 -2 5 1 2 4 -2 16 0 26 6 15 8 17 14 9 22
-15 15 -14 24 5 31 25 10 35 -3 23 -27 -9 -18 -9 -20 2 -9 18 17 30 15 23 -3
-4 -8 -10 -13 -14 -10 -12 7 -40 -35 -34 -50 3 -7 1 -16 -5 -20 -6 -3 -11 -1
-11 6 0 9 -3 9 -14 -1 -8 -6 -12 -19 -9 -27 5 -12 2 -15 -10 -10 -20 7 -33
-11 -19 -25 6 -6 8 -17 5 -24 -3 -8 0 -14 7 -14 6 0 9 -4 6 -9 -3 -5 10 -21
30 -36 26 -20 39 -24 47 -16 8 8 5 16 -8 31 -23 26 -11 26 22 0 14 -11 30 -17
35 -14 5 3 8 -2 6 -12 -2 -16 3 -19 30 -17 29 2 32 0 21 -13 -9 -11 -14 -12
-19 -4 -5 7 -9 3 -13 -10 -5 -21 -27 -20 -27 1 0 6 5 7 12 3 7 -4 8 -3 4 5 -4
6 -13 8 -19 5 -7 -4 -9 -4 -5 1 4 4 3 14 -3 22 -10 11 -14 10 -26 -7 l-14 -20
-29 20 -28 20 -15 -32 c-8 -17 -12 -38 -9 -47 5 -14 3 -14 -11 -2 -13 11 -15
17 -6 28 7 7 9 16 6 19 -3 4 0 13 8 21 8 8 15 19 15 25 0 6 -10 -2 -21 -16
-17 -21 -24 -25 -30 -14 -5 7 -9 18 -9 23 0 6 4 4 9 -3 6 -11 10 -11 18 0 16
20 12 46 -6 43 -9 -1 -15 -8 -13 -15 1 -6 -2 -9 -7 -6 -5 3 -8 -5 -7 -18 2
-17 -1 -23 -10 -19 -8 3 -11 10 -7 17 4 6 9 20 10 31 2 17 0 16 -12 -5 -8 -14
-14 -28 -15 -32 0 -11 56 -38 64 -31 3 4 6 1 6 -5 0 -19 -17 -23 -30 -7 -14
17 -30 20 -30 4 0 -5 4 -8 8 -5 5 3 9 -1 9 -9 0 -8 -4 -15 -9 -15 -5 0 -6 -5
-2 -11 4 -8 9 -7 15 2 5 8 9 9 9 4 0 -6 -6 -17 -12 -25 -10 -11 -9 -11 7 0 16
13 15 9 -5 -20 -13 -19 -17 -29 -9 -23 9 7 19 10 23 6 4 -4 4 0 1 9 -4 9 -2
19 4 23 7 4 8 0 4 -11 -5 -14 -3 -16 11 -11 9 4 15 3 12 -1 -2 -4 4 -9 15 -9
11 -1 23 5 26 12 4 12 8 12 22 -3 9 -10 12 -11 6 -2 -9 13 -8 13 7 1 10 -7 15
-18 11 -25 -4 -6 1 -5 10 3 9 7 17 10 17 6 0 -4 7 -2 15 5 8 7 15 17 15 23 0
6 -7 2 -16 -9 -8 -10 -12 -13 -8 -5 4 9 3 12 -4 7 -7 -4 -10 1 -7 14 2 11 -1
20 -6 20 -6 0 -8 4 -5 9 3 5 -1 11 -9 15 -8 3 -19 -3 -24 -12 -9 -15 -10 -15
-11 -1 0 23 23 40 40 29 9 -5 19 -5 27 2 9 7 13 7 13 0 0 -6 -4 -13 -9 -17
-10 -5 -11 -45 -2 -45 2 0 13 8 24 18 12 10 17 11 12 3 -6 -10 -4 -12 5 -6 9
6 11 4 5 -5 -5 -8 -4 -11 3 -6 6 3 13 2 17 -4 4 -6 11 -8 16 -5 5 4 9 1 9 -5
0 -6 5 -8 11 -4 6 3 7 9 2 13 -10 7 -11 26 0 37 4 4 7 -3 7 -16 0 -36 13 -15
19 31 1 8 31 7 31 -2 0 -4 8 -6 18 -4 9 2 19 4 21 4 3 1 -4 8 -15 17 -10 8
-13 12 -5 8 9 -4 12 -3 7 4 -3 6 -2 13 3 17 5 3 8 14 6 25 -3 13 2 18 16 17
17 -1 23 -10 20 -29 -2 -12 9 -9 25 7 14 14 11 19 -8 16 -4 0 -5 6 -1 15 5 13
7 13 15 2 7 -10 8 -10 7 2 -3 24 12 54 21 40 5 -9 9 -9 14 -1 4 6 1 11 -6 11
-10 0 -9 3 2 10 9 6 20 5 30 -3 13 -11 13 -10 1 6 -8 9 -11 20 -7 24 3 3 6 0
6 -8 0 -12 2 -11 11 1 10 13 10 13 6 -1 -3 -9 1 -16 8 -16 7 0 11 7 8 16 -4
12 -3 13 5 3 7 -11 10 -11 15 3 4 9 3 13 -3 10 -15 -9 -12 5 5 21 14 14 19 11
16 -9 -1 -4 7 -3 18 3 15 7 18 17 15 37 -5 27 -5 27 11 8 9 -11 13 -13 9 -5
-7 13 -6 13 11 0 15 -12 17 -12 10 -1 -5 10 -4 12 4 7 6 -4 10 -4 9 1 -4 10
43 58 57 59 6 0 16 -5 24 -10 12 -9 13 -8 6 4 -6 8 -10 22 -10 30 0 8 -6 24
-14 35 -9 15 -11 16 -7 3 3 -10 1 -18 -4 -18 -6 0 -10 7 -10 15 0 8 -5 15 -11
15 -5 0 -7 -5 -3 -12 4 -7 3 -8 -4 -4 -8 5 -10 2 -6 -8 3 -9 2 -16 -3 -16 -13
0 -13 32 0 48 12 15 16 15 46 -2z m-602 -21 c0 -8 -4 -12 -9 -9 -5 3 -6 10 -3
15 9 13 12 11 12 -6z m533 -15 c-8 -5 -7 -9 5 -14 9 -3 22 -3 28 1 21 13 45
10 42 -6 -3 -21 -48 -22 -75 -1 -22 17 -20 47 2 34 7 -4 6 -9 -2 -14z m-773
-4 c0 -8 -6 -12 -15 -9 -11 5 -11 7 0 14 7 5 13 9 14 9 0 0 1 -6 1 -14z m-122
-17 c11 -16 1 -19 -13 -3 -7 8 -8 14 -3 14 5 0 13 -5 16 -11z m361 4 c-8 -8
-66 -12 -62 -4 2 3 18 7 36 7 17 1 29 -1 26 -3z m-399 -43 c0 -16 -2 -28 -5
-25 -8 8 -11 55 -3 55 4 0 8 -13 8 -30z m948 20 c4 -6 11 -8 16 -5 18 12 8 -5
-18 -29 -21 -19 -31 -23 -45 -15 -10 6 -16 14 -13 19 3 5 1 11 -3 14 -5 3 -8
-15 -7 -39 1 -43 -7 -57 -20 -35 -4 6 -15 3 -30 -7 -12 -10 -21 -21 -19 -25 3
-4 -5 -5 -16 -3 -11 2 -24 -3 -30 -13 -5 -9 -10 -13 -10 -8 0 5 -15 -11 -32
-35 -31 -43 -49 -53 -62 -36 -3 4 -3 5 1 2 9 -7 32 15 29 28 -1 7 -1 9 1 5 3
-5 9 -8 14 -8 6 0 8 4 5 9 -4 5 -3 11 1 14 5 2 3 2 -4 1 -6 -2 -11 6 -10 17 1
21 8 24 23 9 12 -12 55 23 53 43 0 9 -2 9 -6 -1 -2 -6 -10 -9 -15 -6 -6 4 -8
2 -4 -4 3 -6 2 -13 -3 -16 -5 -3 -12 1 -15 10 -4 11 3 18 25 26 24 8 28 13 17
20 -9 7 -7 8 7 3 19 -7 44 -9 73 -6 7 0 12 7 11 14 -5 39 2 58 19 53 9 -3 24
-1 32 4 19 12 27 12 35 0z m-856 -9 c8 -5 11 -16 8 -26 -4 -9 -11 -13 -17 -10
-5 3 -10 -3 -10 -15 0 -13 4 -19 12 -14 7 4 8 3 4 -5 -12 -19 -26 -2 -24 29 2
24 5 27 17 17 11 -10 13 -9 9 3 -3 8 -14 15 -26 14 -12 0 -19 3 -16 8 7 10 25
10 43 -1z m756 -29 c-2 -15 -4 -29 -5 -32 0 -3 -5 3 -11 14 -9 14 -8 21 2 28
11 8 11 9 -1 5 -8 -2 -15 -11 -15 -20 0 -8 -4 -19 -8 -23 -4 -4 -7 0 -7 10 0
9 -7 19 -15 22 -21 9 -7 26 15 19 10 -3 21 -1 25 5 11 18 24 1 20 -28z m-670
19 c3 -5 2 -12 -3 -15 -5 -3 -9 1 -9 9 0 17 3 19 12 6z m199 -6 c3 -8 1 -15
-4 -15 -6 0 -10 7 -10 15 0 8 2 15 4 15 2 0 6 -7 10 -15z m-418 -21 c-1 -8 -6
-17 -12 -21 -5 -4 -6 -4 -2 1 4 5 3 14 -2 21 -7 8 -5 12 4 12 8 0 13 -6 12
-13z m94 6 c0 -5 -2 -10 -4 -10 -3 0 -8 5 -11 10 -3 6 -1 10 4 10 6 0 11 -4
11 -10z m270 0 c0 -5 -5 -10 -11 -10 -5 0 -7 5 -4 10 3 6 8 10 11 10 2 0 4 -4
4 -10z m-336 -16 c3 -8 2 -12 -4 -9 -6 3 -10 10 -10 16 0 14 7 11 14 -7z m356
1 c0 -8 -4 -15 -10 -15 -5 0 -7 7 -4 15 4 8 8 15 10 15 2 0 4 -7 4 -15z m-423
-2 c-4 -3 -2 -11 3 -18 7 -8 5 -12 -4 -12 -8 0 -12 7 -11 16 5 22 4 21 12 21
3 0 3 -3 0 -7z m119 -4 c8 -14 -18 -31 -30 -19 -9 9 0 30 14 30 5 0 12 -5 16
-11z m-8191 -8 c3 -5 2 -12 -3 -15 -5 -3 -9 1 -9 9 0 17 3 19 12 6z m249 -9
c2 -4 -5 -9 -17 -9 -17 -2 -19 0 -7 7 18 12 18 12 24 2z m8046 -2 c0 -5 -2
-10 -4 -10 -3 0 -8 5 -11 10 -3 6 -1 10 4 10 6 0 11 -4 11 -10z m910 0 c0 -5
-5 -10 -11 -10 -5 0 -7 5 -4 10 3 6 8 10 11 10 2 0 4 -4 4 -10z m-1085 -18
c-3 -3 -11 0 -18 7 -9 10 -8 11 6 5 10 -3 15 -9 12 -12z m35 -3 c0 -5 -4 -9
-8 -9 -5 0 -9 7 -9 15 0 8 4 12 9 9 4 -3 8 -9 8 -15z m272 -11 c-8 -8 -9 -4
-5 13 4 13 8 18 11 10 2 -7 -1 -18 -6 -23z m828 27 c0 -2 -9 -9 -20 -15 -12
-6 -20 -7 -20 -1 0 5 8 12 18 14 9 3 18 5 20 6 1 0 2 -1 2 -4z m-1058 -18
c-12 -7 -19 -17 -15 -22 4 -4 3 -5 -3 -2 -7 4 -14 0 -18 -8 -3 -8 -11 -15 -17
-15 -7 0 2 14 19 30 18 17 37 30 44 30 7 -1 3 -6 -10 -13z m983 -1 c6 3 18 -2
25 -11 8 -10 9 -15 1 -15 -6 0 -11 5 -11 10 0 16 -14 12 -38 -10 -12 -12 -22
-16 -22 -10 0 6 7 13 15 16 13 5 13 9 3 23 -10 13 -10 14 1 4 7 -6 19 -9 26
-7z m-8914 -19 c-10 -9 -11 -8 -5 6 3 10 9 15 12 12 3 -3 0 -11 -7 -18z m8610
1 c12 -23 12 -23 -10 -4 -11 11 -21 14 -21 8 0 -7 1 -13 3 -15 1 -2 -6 -15
-16 -30 -11 -18 -13 -27 -6 -27 14 0 3 -14 -12 -16 -5 -1 -13 -2 -18 -3 -6 0
-8 -10 -6 -21 2 -12 0 -18 -6 -15 -5 4 -7 10 -4 15 3 5 1 11 -4 15 -6 3 -8 -4
-6 -17 3 -13 9 -24 15 -26 5 -2 3 -10 -5 -19 -8 -8 -13 -18 -10 -23 2 -4 -9
-6 -26 -5 -24 2 -29 -1 -24 -13 3 -9 3 -13 -1 -9 -9 9 -35 -13 -29 -23 12 -19
-14 -18 -30 0 -17 18 -16 21 1 20 3 -1 13 9 24 22 13 17 15 26 8 36 -8 9 -8
16 0 24 15 15 34 0 27 -22 -3 -10 -1 -21 5 -25 5 -3 10 -1 10 4 0 6 6 10 13 9
6 -2 11 3 9 10 -1 9 2 11 10 6 9 -5 9 -2 -1 10 -8 9 -21 14 -28 11 -8 -3 -13
0 -11 6 2 6 8 10 13 10 15 0 27 28 19 41 -13 21 -11 48 4 60 11 10 17 8 28 -7
21 -29 16 -43 -6 -16 -11 13 -20 19 -20 13 0 -6 7 -17 15 -26 20 -20 19 -30
-2 -21 -15 5 -16 4 -5 -7 11 -11 16 -9 32 12 11 14 15 27 9 29 -11 3 29 51 42
51 5 0 14 -10 20 -22z m-8864 5 c-4 -3 -2 -11 3 -18 7 -8 6 -12 -3 -12 -7 0
-14 9 -14 19 -1 10 3 18 9 18 6 0 8 -3 5 -7z m118 -2 c3 -5 2 -12 -3 -15 -5
-3 -9 1 -9 9 0 17 3 19 12 6z m8125 5 c0 -3 -4 -8 -10 -11 -5 -3 -10 -1 -10 4
0 6 5 11 10 11 6 0 10 -2 10 -4z m996 -21 c1 -9 -4 -11 -14 -7 -10 4 -12 7 -4
10 7 2 9 9 5 15 -3 7 -2 8 2 4 5 -4 10 -14 11 -22z m-1204 0 c3 0 9 -3 13 -7
4 -3 0 -5 -9 -4 -9 1 -22 8 -29 16 -10 10 -9 11 3 4 8 -5 18 -9 22 -9z m1066
-10 c-3 -3 -9 2 -12 12 -6 14 -5 15 5 6 7 -7 10 -15 7 -18z m-995 8 c-7 -2
-13 -9 -13 -14 0 -6 4 -8 9 -4 6 3 15 -5 21 -17 9 -20 9 -21 -2 -7 -7 9 -21
15 -30 13 -15 -2 -16 1 -8 17 6 10 16 19 23 18 9 0 9 -2 0 -6z m1077 -14 c0
-6 -4 -7 -10 -4 -5 3 -10 11 -10 16 0 6 5 7 10 4 6 -3 10 -11 10 -16z m-131
-2 c-9 -7 -14 -19 -12 -27 4 -13 3 -13 -6 0 -8 11 -6 18 6 28 9 6 19 12 22 12
3 0 -1 -6 -10 -13z m-8769 -32 c0 -5 -5 -3 -10 5 -5 8 -10 20 -10 25 0 6 5 3
10 -5 5 -8 10 -19 10 -25z m8097 20 c0 -8 -4 -12 -9 -9 -5 3 -6 10 -3 15 9 13
12 11 12 -6z m779 3 c4 -7 4 -10 -1 -6 -4 4 -15 2 -24 -5 -14 -11 -14 -10 -2
6 16 20 18 21 27 5z m-9139 -13 c0 -8 -4 -15 -9 -15 -4 0 -8 7 -8 15 0 8 4 15
8 15 5 0 9 -7 9 -15z m7959 -5 c0 -12 -4 -16 -9 -11 -5 5 -6 14 -3 20 10 15
12 14 12 -9z m1261 7 c0 -7 -9 -14 -19 -14 -10 -1 -18 3 -18 8 0 6 4 8 9 4 5
-3 12 -1 16 5 8 13 12 13 12 -3z m-1297 -7 c0 -5 -5 -10 -11 -10 -5 0 -7 5 -4
10 3 6 8 10 11 10 2 0 4 -4 4 -10z m99 7 c-2 -1 -13 -9 -24 -17 -19 -14 -19
-14 -6 3 7 9 18 17 24 17 6 0 8 -1 6 -3z m136 -6 c-9 -8 -36 -10 -30 -2 2 4
11 8 20 8 8 0 13 -3 10 -6z m840 -11 c-3 -5 -12 -10 -18 -10 -7 0 -6 4 3 10
19 12 23 12 15 0z m-921 -37 c3 -12 -1 -20 -10 -20 -10 0 -11 4 -5 10 7 7 6
17 -1 31 -8 16 -8 18 1 10 6 -6 13 -20 15 -31z m1083 20 c-14 -14 -19 -15 -29
-4 -11 10 -10 11 3 6 10 -4 20 -2 24 4 3 6 9 11 13 11 3 0 -1 -8 -11 -17z
m-9147 2 c0 -2 -6 -8 -13 -14 -10 -8 -14 -7 -14 2 0 8 6 14 14 14 7 0 13 -1
13 -2z m9005 -16 c-3 -12 -7 -24 -10 -27 -3 -3 -3 5 -1 19 6 30 5 29 10 29 3
0 3 -10 1 -21z m-8840 2 c3 -5 2 -12 -3 -15 -5 -3 -9 1 -9 9 0 17 3 19 12 6z
m99 -7 c3 -8 2 -12 -4 -9 -6 3 -10 10 -10 16 0 14 7 11 14 -7z m7726 12 c0 -2
-7 -7 -16 -10 -8 -3 -12 -2 -9 4 6 10 25 14 25 6z m310 0 c0 -2 -8 -10 -17
-17 -16 -13 -17 -12 -4 4 13 16 21 21 21 13z m765 -14 c-3 -3 -11 0 -18 7 -9
10 -8 11 6 5 10 -3 15 -9 12 -12z m-722 -7 c-3 -9 -8 -14 -10 -11 -3 3 -2 9 2
15 9 16 15 13 8 -4z m87 -6 c0 -5 -4 -9 -8 -9 -5 0 -9 7 -9 15 0 8 4 12 9 9 4
-3 8 -9 8 -15z m-8417 -36 c-3 -7 -10 -13 -15 -13 -6 0 -5 7 2 16 11 13 10 16
-9 21 -16 4 -19 8 -10 14 15 9 39 -19 32 -38z m8012 29 c-3 -3 -11 0 -18 7 -9
10 -8 11 6 5 10 -3 15 -9 12 -12z m925 8 c0 -5 -4 -10 -10 -10 -5 0 -10 5 -10
10 0 6 5 10 10 10 6 0 10 -4 10 -10z m-983 -15 c0 -8 -4 -15 -9 -15 -10 0 -11
14 -1 23 9 10 10 9 10 -8z m943 4 c12 -8 10 -9 -7 -4 -12 3 -24 1 -28 -5 -3
-5 -14 -10 -23 -10 -12 0 -10 4 8 14 32 18 32 18 50 5z m280 7 c0 -2 -8 -10
-17 -17 -16 -13 -17 -12 -4 4 13 16 21 21 21 13z m-1185 -24 c-3 -3 -11 0 -18
7 -9 10 -8 11 6 5 10 -3 15 -9 12 -12z m322 1 c2 -6 -1 -14 -6 -18 -7 -3 -8 0
-5 10 4 11 2 14 -9 9 -8 -3 -17 -1 -21 4 -3 5 5 8 16 7 12 -1 23 -6 25 -12z
m380 4 c0 -8 -6 -14 -13 -14 -7 0 -10 6 -7 14 3 7 8 13 12 13 4 0 8 -6 8 -13z
m185 -14 c-6 -2 -9 -10 -6 -15 4 -7 2 -8 -5 -4 -13 9 -5 26 12 25 9 0 8 -2 -1
-6z m-393 -12 c11 -7 10 -11 -7 -22 -17 -11 -19 -17 -10 -33 10 -18 11 -19 23
-2 12 16 14 16 21 -6 15 -44 13 -48 -13 -29 -23 19 -59 19 -47 0 3 -5 0 -9 -5
-9 -6 0 -11 5 -11 11 0 6 -7 8 -17 5 -10 -4 -14 -4 -10 0 3 4 -3 21 -15 38
l-21 31 30 -28 c26 -25 31 -26 43 -12 10 12 10 15 -1 16 -10 0 -11 2 -1 6 6 2
10 9 6 14 -6 10 3 29 14 29 4 0 13 -4 21 -9z m61 -6 c-7 -9 -15 -13 -17 -11
-7 7 7 26 19 26 6 0 6 -6 -2 -15z m-536 -11 c3 -8 2 -12 -4 -9 -6 3 -10 10
-10 16 0 14 7 11 14 -7z m-7998 -6 c4 -7 3 -8 -4 -4 -7 4 -12 3 -12 -3 0 -5 5
-11 12 -13 7 -3 5 -7 -6 -11 -9 -4 -15 -3 -11 2 3 5 0 13 -6 17 -8 4 -7 9 2
15 18 11 17 11 25 -3z m204 -8 c0 -5 -2 -10 -4 -10 -3 0 -8 5 -11 10 -3 6 -1
10 4 10 6 0 11 -4 11 -10z m8719 -24 c-3 -3 -11 5 -18 17 -13 21 -12 21 5 5
10 -10 16 -20 13 -22z m-659 21 c0 -2 -11 -14 -24 -26 -18 -17 -26 -19 -31
-10 -5 7 -4 10 2 6 6 -4 18 2 28 13 17 19 25 24 25 17z m291 -20 c-13 -13 -26
-3 -16 12 3 6 11 8 17 5 6 -4 6 -10 -1 -17z m321 8 c3 0 10 -4 15 -9 4 -5 3
-6 -4 -3 -6 4 -13 3 -15 -3 -2 -6 -9 -1 -16 11 -11 17 -11 20 0 13 7 -5 16 -9
20 -9z m-8633 -29 c-3 -3 -11 5 -18 17 -13 21 -12 21 5 5 10 -10 16 -20 13
-22z m8518 27 c-4 -3 -2 -12 5 -20 8 -11 7 -12 -6 -7 -18 7 -22 34 -4 34 6 0
8 -3 5 -7z m-496 -26 c-10 -9 -11 -8 -5 6 3 10 9 15 12 12 3 -3 0 -11 -7 -18z
m578 10 c8 -10 7 -14 -2 -14 -8 0 -14 6 -14 14 0 7 1 13 2 13 2 0 8 -6 14 -13z
m-8828 -14 c13 -17 13 -17 -5 -3 -18 14 -19 13 -13 -2 3 -10 2 -20 -2 -22 -5
-3 -7 5 -6 17 4 34 6 35 26 10z m8709 -14 c0 -6 -4 -7 -10 -4 -5 3 -10 11 -10
16 0 6 5 7 10 4 6 -3 10 -11 10 -16z m-8665 -46 c9 -13 15 -27 12 -29 -2 -2
-10 7 -17 20 -13 25 -40 43 -40 27 0 -5 6 -12 13 -14 9 -4 9 -6 0 -6 -15 -1
-26 16 -18 29 8 14 32 2 50 -27z m244 14 c0 -9 -2 -8 -6 1 -2 6 -10 9 -15 6
-7 -4 -8 -2 -4 5 9 13 26 5 25 -12z m7561 13 c0 -5 -5 -10 -11 -10 -5 0 -7 5
-4 10 3 6 8 10 11 10 2 0 4 -4 4 -10z m409 -8 c6 -12 6 -23 0 -33 -9 -12 -10
-12 -6 1 2 8 0 23 -5 33 -5 9 -6 17 -4 17 3 0 10 -8 15 -18z m421 -2 c-12 -23
-16 -24 -26 -8 -4 6 -3 8 3 5 6 -4 13 0 17 8 3 8 8 15 11 15 3 0 1 -9 -5 -20z
m61 3 c13 -16 12 -17 -3 -4 -10 7 -18 15 -18 17 0 8 8 3 21 -13z m143 9 c3 -5
-1 -9 -9 -9 -8 0 -12 4 -9 9 3 4 7 8 9 8 2 0 6 -4 9 -8z m-154 -36 c0 -3 -4
-8 -10 -11 -5 -3 -10 -1 -10 4 0 6 5 11 10 11 6 0 10 -2 10 -4z m-8667 -31
c17 16 23 9 9 -10 -15 -22 -52 -1 -51 30 0 6 6 -1 13 -13 12 -22 14 -23 29 -7z
m8183 3 c5 -7 3 -8 -6 -3 -10 6 -12 4 -6 -11 5 -14 4 -16 -5 -7 -6 6 -8 16 -5
22 9 14 13 14 22 -1z m334 2 c0 -5 -4 -10 -10 -10 -5 0 -10 5 -10 10 0 6 5 10
10 10 6 0 10 -4 10 -10z m-8192 -25 c-3 -3 -9 2 -12 12 -6 14 -5 15 5 6 7 -7
10 -15 7 -18z m-273 -15 c-2 -3 16 -16 41 -29 24 -13 44 -28 44 -32 0 -5 5 -8
11 -6 6 1 14 -4 17 -12 3 -10 0 -12 -14 -8 -18 7 -18 6 0 -8 13 -10 15 -15 6
-15 -9 0 -8 -5 6 -16 10 -8 12 -12 4 -8 -10 5 -9 1 4 -14 10 -12 24 -19 30
-15 6 4 5 -1 -3 -10 -7 -9 -17 -14 -22 -11 -5 3 -9 -2 -9 -11 0 -12 4 -14 19
-6 10 6 22 7 26 3 5 -4 5 -1 1 6 -5 8 0 22 13 36 l20 22 -22 13 c-18 11 -20
11 -9 0 19 -20 14 -34 -5 -16 -10 8 -22 16 -27 16 -13 1 -17 29 -5 37 5 3 9
-2 9 -11 0 -9 6 -15 13 -13 19 4 87 -34 87 -49 0 -7 5 -13 11 -13 5 0 7 5 3
11 -8 13 -9 14 76 -28 36 -17 87 -41 113 -53 27 -13 51 -29 54 -36 3 -8 9 -12
14 -9 4 3 6 -4 4 -15 -2 -11 0 -18 5 -15 4 3 11 -1 14 -7 3 -7 3 -3 0 10 -6
26 16 31 36 7 7 -8 17 -12 23 -8 6 3 3 -4 -6 -16 -15 -23 -13 -51 4 -51 4 0 6
6 3 13 -2 7 2 21 10 32 10 12 15 15 16 7 0 -7 5 -10 10 -7 6 3 10 1 10 -5 0
-6 5 -8 10 -5 6 4 9 1 8 -6 -2 -6 3 -14 11 -17 9 -3 11 0 6 8 -5 8 -4 11 3 6
6 -4 8 -14 5 -24 -5 -13 -4 -15 8 -6 12 9 21 10 45 5 4 0 1 -8 -6 -16 -8 -9
-9 -15 -2 -15 6 0 14 5 17 10 5 8 11 8 19 1 7 -6 16 -8 19 -4 4 3 9 -2 13 -11
3 -9 11 -13 17 -9 5 3 16 -2 24 -12 9 -14 13 -15 13 -4 1 10 4 8 11 -5 9 -15
13 -16 20 -5 7 11 9 11 9 1 0 -7 5 -10 12 -6 7 5 8 3 3 -6 -6 -10 -3 -12 12
-8 24 7 33 1 51 -31 9 -15 10 -27 4 -33 -7 -7 -10 -4 -9 7 1 10 -5 20 -13 22
-13 4 -13 3 0 -6 12 -9 13 -13 2 -20 -11 -6 -10 -10 3 -15 21 -8 47 12 38 28
-3 6 0 6 8 -1 16 -15 39 -17 39 -3 0 5 -3 9 -8 7 -4 -1 -8 2 -10 7 -1 6 4 11
13 12 9 1 12 -2 8 -9 -4 -7 0 -8 12 -3 14 5 16 4 6 -8 -9 -11 -7 -13 14 -13
20 0 23 2 14 13 -8 10 -8 14 0 14 10 0 15 -13 12 -32 -2 -14 11 -9 26 10 8 9
12 12 9 5 -4 -6 -2 -14 3 -17 5 -4 12 2 15 11 3 11 4 9 3 -6 -1 -13 4 -26 11
-28 7 -3 10 1 6 10 -3 8 0 18 7 23 8 4 10 3 5 -5 -8 -13 10 -41 26 -41 6 0 5
7 -2 15 -7 9 -10 18 -8 21 5 5 48 -57 48 -69 0 -3 -7 -12 -15 -21 -13 -13 -10
-19 25 -56 42 -44 46 -50 30 -50 -5 0 -10 8 -10 17 0 9 -3 13 -7 10 -3 -4 -13
2 -20 13 -8 11 -19 17 -25 14 -6 -4 -5 -10 3 -16 11 -8 11 -9 1 -6 -8 2 -13 7
-12 12 1 5 -4 13 -12 18 -9 7 -8 8 5 4 12 -4 17 -2 14 6 -2 7 -13 11 -23 10
-27 -5 -29 -9 -14 -27 7 -9 10 -18 6 -22 -3 -3 -6 -2 -6 4 0 5 -13 24 -29 42
-38 42 -32 58 21 57 23 0 43 4 45 10 2 7 -13 10 -42 9 -36 -2 -45 1 -43 13 2
8 -2 17 -9 19 -7 3 -10 -5 -9 -21 2 -13 -1 -30 -6 -38 -8 -10 -9 -9 -5 3 3 8
-3 21 -14 27 -10 7 -19 8 -19 3 0 -6 5 -13 10 -16 6 -4 8 -15 5 -25 -4 -13 -1
-17 12 -16 12 1 18 -6 18 -20 0 -11 5 -27 11 -35 27 -34 25 -41 -3 -11 -30 31
-69 48 -44 19 6 -8 7 -18 3 -22 -4 -5 1 -5 11 -2 11 4 16 3 12 -3 -3 -6 -1
-10 4 -10 6 0 11 -5 11 -10 0 -6 -11 -3 -25 6 -14 9 -23 20 -20 24 2 4 -4 15
-15 25 -17 15 -22 16 -37 4 -9 -8 -14 -9 -10 -3 3 6 -11 20 -34 33 -23 13 -36
27 -33 33 5 8 1 9 -10 5 -11 -5 -15 -3 -10 4 4 7 1 10 -7 7 -8 -3 -13 -17 -13
-32 1 -14 -1 -24 -4 -22 -2 3 -12 1 -21 -4 -11 -5 -23 -5 -32 1 -12 9 -12 10
1 6 18 -5 50 10 50 24 0 6 -4 8 -9 5 -5 -4 -12 0 -14 6 -3 8 -6 6 -6 -4 -1
-10 -5 -18 -11 -18 -5 0 -9 5 -7 11 1 6 -3 13 -9 16 -7 2 -11 -4 -10 -13 0 -9
-5 -19 -11 -21 -7 -3 -13 0 -13 7 0 6 5 8 11 5 6 -4 9 0 7 11 -2 16 4 19 34
19 38 0 66 14 32 16 -10 1 -23 1 -29 0 -12 -1 -36 49 -29 60 3 5 14 4 25 -1
10 -6 19 -8 19 -6 0 3 -9 10 -19 16 -21 11 -54 3 -46 -10 3 -5 1 -11 -5 -15
-16 -10 -12 -23 6 -21 9 0 19 -5 21 -11 3 -8 -4 -13 -16 -13 -12 0 -21 6 -21
13 0 9 -2 9 -9 -1 -4 -7 -12 -12 -17 -11 -22 4 -35 -2 -28 -13 5 -10 4 -10 -6
-1 -16 15 -8 26 22 28 12 1 23 6 25 12 6 18 -49 7 -64 -13 -11 -15 -10 -21 5
-38 17 -20 17 -21 -3 -5 -20 17 -45 15 -45 -2 0 -6 4 -8 9 -5 4 3 17 -2 27
-10 16 -13 16 -15 2 -10 -10 3 -20 0 -24 -6 -4 -7 -3 -8 4 -4 7 4 12 3 12 -3
0 -5 8 -8 18 -6 21 4 26 -21 9 -42 -6 -9 -6 -13 1 -13 6 0 14 5 17 10 4 7 17
0 32 -16 16 -17 21 -30 15 -36 -12 -12 -32 -2 -32 15 0 7 4 6 10 -3 5 -8 12
-12 15 -8 7 7 -22 38 -35 38 -5 0 -8 -6 -6 -12 1 -7 1 -10 -1 -5 -3 4 -11 7
-18 7 -16 0 -28 27 -15 35 6 4 10 11 10 17 0 7 -5 6 -14 -1 -11 -10 -21 -9
-42 2 -27 14 -27 15 -6 21 12 4 20 12 17 17 -3 5 -17 2 -31 -7 -23 -16 -24
-16 -17 2 6 16 4 17 -9 7 -12 -11 -21 -7 -50 21 -25 24 -42 33 -61 31 -15 -2
-25 1 -22 5 3 5 13 6 23 3 15 -6 15 -5 3 10 -10 13 -17 14 -27 6 -10 -8 -12
-6 -9 9 2 11 -3 23 -10 26 -10 3 -12 -2 -9 -20 2 -13 0 -24 -5 -24 -6 0 -8 8
-6 18 2 10 -1 25 -6 33 -7 12 -9 12 -9 0 0 -8 -2 -12 -5 -9 -6 6 23 65 36 73
5 4 9 1 9 -4 0 -6 -5 -11 -12 -11 -6 0 -8 -3 -5 -7 4 -3 2 -12 -4 -20 -11 -12
-2 -18 24 -14 4 0 7 -4 7 -10 0 -5 5 -7 11 -3 8 4 7 9 -2 16 -11 8 -11 9 1 5
8 -2 14 -10 12 -17 -2 -8 3 -10 13 -6 13 5 14 2 5 -17 -11 -21 -11 -21 4 -3 9
11 16 15 16 10 0 -6 -5 -15 -11 -21 -8 -8 -7 -13 2 -18 8 -6 10 -4 5 6 -4 8 0
5 8 -5 9 -11 16 -14 16 -8 0 7 4 12 10 12 5 0 9 -4 7 -9 -1 -5 3 -9 8 -9 6 0
9 3 8 7 -1 4 17 6 40 6 30 0 41 -4 39 -14 -1 -7 3 -11 10 -9 7 3 15 13 16 23
2 10 0 15 -6 11 -6 -3 -13 2 -17 13 -3 11 -13 25 -21 32 -13 11 -15 10 -12 -7
1 -10 8 -23 13 -27 6 -5 4 -7 -5 -4 -8 2 -14 10 -13 16 2 6 -2 11 -9 11 -9 0
-9 3 0 12 19 19 14 29 -8 16 -18 -11 -23 -10 -40 12 -17 22 -20 23 -25 7 -4
-9 -11 -17 -17 -17 -5 0 -7 4 -4 9 4 5 3 17 -1 27 -6 16 -7 16 -14 -2 -3 -10
-2 -25 3 -31 13 -16 3 -17 -21 -1 -18 11 -18 13 -3 24 14 10 15 15 5 25 -7 7
-13 18 -13 24 0 5 7 2 14 -8 8 -10 17 -18 20 -18 20 3 26 0 21 -9 -11 -17 7
-11 21 8 16 21 18 42 3 42 -5 0 -8 -4 -4 -9 11 -18 -16 -23 -41 -6 -13 9 -30
13 -37 9 -7 -4 -4 2 6 13 10 12 14 24 9 27 -5 3 -14 -5 -20 -18 -8 -18 -7 -29
5 -45 8 -12 12 -25 8 -29 -4 -4 -10 -2 -12 4 -2 6 -10 20 -18 30 -14 18 -15
18 -9 1 6 -17 5 -18 -14 -6 -11 7 -19 16 -16 20 2 4 -3 15 -12 23 -14 15 -14
17 0 32 9 8 16 14 17 12 0 -2 2 -13 3 -25 4 -31 13 -38 30 -24 17 14 18 93 1
88 -5 -2 -9 -23 -7 -46 1 -27 -1 -40 -8 -36 -5 3 -8 21 -5 38 3 20 2 27 -3 19
-7 -11 -10 -10 -15 3 -4 9 -3 14 2 11 5 -3 8 5 7 19 -1 19 -5 23 -20 19 -10
-4 -16 -2 -13 3 4 5 0 10 -8 10 -8 0 -13 -3 -10 -5 3 -3 -3 -10 -12 -17 -16
-12 -9 -40 8 -30 5 4 9 2 9 -3 0 -18 -13 -21 -34 -7 -27 20 -33 19 -46 -5 -10
-18 -9 -19 15 -10 34 13 35 13 29 -5 -3 -8 -11 -13 -16 -12 -6 1 -13 -4 -16
-12 -3 -10 0 -12 12 -8 9 4 15 2 13 -6 -1 -7 7 -11 18 -9 15 2 16 0 7 -6 -11
-8 -11 -10 1 -15 10 -4 13 -13 10 -28 -4 -15 -3 -20 5 -15 7 4 12 14 12 22 0
8 5 14 10 14 14 0 13 -13 -2 -28 -9 -9 -9 -12 0 -12 7 0 12 5 12 11 0 5 5 7
12 3 9 -6 9 -9 0 -12 -7 -2 -10 -7 -8 -11 3 -3 -5 -18 -16 -31 l-20 -25 16 28
c13 21 14 27 4 25 -18 -3 -60 21 -53 32 3 5 1 11 -5 15 -5 3 -10 0 -10 -7 -1
-7 -6 -3 -13 10 -7 12 -16 20 -19 17 -4 -4 -16 -1 -28 5 -18 10 -20 14 -9 21
7 4 10 12 5 16 -4 4 -14 -1 -22 -11 -8 -11 -14 -16 -14 -12 0 4 9 21 21 37 11
16 16 29 10 29 -6 0 -10 3 -10 8 3 16 -2 23 -11 17 -8 -5 -7 -11 1 -21 13 -16
14 -15 -24 -20 -21 -2 -28 1 -26 14 3 31 -1 43 -11 37 -5 -3 -7 -13 -4 -23 4
-10 3 -13 -3 -6 -4 6 -16 10 -25 9 -22 -4 -19 14 7 37 24 21 8 23 -19 3 -10
-8 -23 -12 -27 -9 -5 3 -9 1 -9 -5 0 -5 5 -12 10 -14 6 -3 5 -4 -2 -3 -17 3
-17 31 0 32 6 1 17 2 24 3 6 0 8 4 5 8 -4 3 -2 12 3 18 8 9 4 13 -15 13 -22 0
-24 -3 -13 -17 8 -10 5 -9 -10 3 -12 11 -22 25 -22 32 0 20 -19 27 -35 14 -22
-18 -18 -3 5 22 27 29 26 46 -2 22 -12 -10 -18 -13 -14 -6 4 7 2 12 -4 12 -7
0 -10 6 -7 14 4 10 -2 13 -19 12 -13 0 -24 -6 -24 -11 0 -6 -9 -16 -21 -23
-18 -11 -17 -8 6 23 16 20 34 34 42 31 15 -6 18 10 2 19 -5 4 -20 -1 -32 -12
l-22 -18 20 24 c18 22 19 24 2 18 -10 -4 -22 -7 -27 -7 -4 0 -6 -9 -3 -20 3
-11 3 -20 0 -20 -2 0 -7 9 -10 21 -4 15 1 23 21 31 22 9 24 12 9 15 -10 3 -24
-1 -32 -7 -11 -9 -18 -9 -32 0 -16 10 -16 11 -1 6 27 -8 68 17 57 35 -7 12 -9
12 -9 0 0 -8 -2 -12 -5 -9 -3 3 -3 12 1 21 4 13 9 14 19 4 7 -7 11 -14 10 -17z
m8442 -1 c1 -22 1 -23 -4 -1 -2 12 -9 20 -14 17 -5 -4 -9 -1 -9 5 0 23 25 3
27 -21z m49 5 c18 -14 18 -14 -6 -3 -31 14 -36 19 -24 19 6 0 19 -7 30 -16z
m-8579 -9 c0 -8 -6 -16 -13 -19 -7 -3 -10 2 -7 15 6 22 20 26 20 4z m563 5 c0
-5 -2 -10 -4 -10 -3 0 -8 5 -11 10 -3 6 -1 10 4 10 6 0 11 -4 11 -10z m7597
-9 c0 -11 -5 -18 -9 -15 -4 3 -5 11 -1 19 7 21 12 19 10 -4z m93 12 c0 -5 -12
-9 -27 -10 -19 -1 -22 1 -12 8 17 11 39 12 39 2z m-8210 -11 c0 -5 -7 -9 -15
-9 -8 0 -12 4 -9 9 3 4 9 8 15 8 5 0 9 -4 9 -8z m360 -2 c0 -5 -5 -10 -11 -10
-5 0 -7 5 -4 10 3 6 8 10 11 10 2 0 4 -4 4 -10z m7879 -9 c8 -14 7 -22 -7 -32
-15 -13 -16 -12 -3 4 7 9 9 17 4 17 -5 0 -10 7 -10 15 0 20 4 19 16 -4z m217
-16 c1 -8 -2 -12 -8 -9 -6 4 -14 0 -19 -7 -6 -10 -8 -8 -7 8 2 14 7 19 17 15
10 -4 12 -1 6 9 -5 8 -4 11 0 6 5 -4 10 -14 11 -22z m74 21 c0 -2 -7 -6 -15
-10 -8 -3 -15 -1 -15 4 0 6 7 10 15 10 8 0 15 -2 15 -4z m50 0 c0 -3 -4 -8
-10 -11 -5 -3 -10 -1 -10 4 0 6 5 11 10 11 6 0 10 -2 10 -4z m-8185 -17 c11
-16 1 -19 -13 -3 -7 8 -8 14 -3 14 5 0 13 -5 16 -11z m7815 -9 c0 -4 -6 -10
-13 -13 -7 -3 -13 3 -13 13 0 10 6 16 13 13 7 -3 13 -9 13 -13z m187 6 c-3 -7
-1 -18 4 -23 6 -6 4 -10 -5 -10 -7 0 -12 7 -11 16 2 9 4 19 4 24 1 4 4 7 7 7
3 0 4 -6 1 -14z m-32 -7 c11 -16 1 -19 -13 -3 -7 8 -8 14 -3 14 5 0 13 -5 16
-11z m166 2 c-8 -5 -10 -14 -6 -22 6 -11 5 -11 -5 -2 -14 12 -6 33 13 33 8 0
7 -3 -2 -9z m-8566 -21 c-3 -5 -12 -10 -18 -10 -7 0 -6 4 3 10 19 12 23 12 15
0z m479 1 c4 -5 -3 -7 -14 -4 -23 6 -26 13 -6 13 8 0 17 -4 20 -9z m7910 -7
c3 -8 2 -12 -4 -9 -6 3 -10 10 -10 16 0 14 7 11 14 -7z m-7858 -23 c1 -6 0 -7
-3 -1 -2 5 -9 8 -13 5 -5 -3 -11 -1 -14 4 -4 5 2 8 11 7 9 -2 18 -8 19 -15z
m7981 -1 c-2 -11 -9 -26 -17 -33 -10 -10 -11 -9 -4 3 9 15 10 20 13 40 0 6 3
10 6 10 3 0 3 -9 2 -20z m-9501 -12 c3 -4 -1 -5 -10 -4 -8 1 -18 5 -22 8 -3 4
1 5 10 4 8 -1 18 -5 22 -8z m9213 -10 c-5 -10 -11 -18 -12 -18 -2 0 -3 8 -3
18 0 10 6 19 13 19 8 0 9 -6 2 -19z m131 -9 c0 -5 -5 -9 -12 -9 -6 0 -8 3 -5
7 4 3 1 13 -6 22 -11 14 -10 14 6 2 9 -7 17 -17 17 -22z m-107 6 c-3 -9 -8
-14 -10 -11 -3 3 -2 9 2 15 9 16 15 13 8 -4z m45 -10 c-3 -3 -9 2 -12 12 -6
14 -5 15 5 6 7 -7 10 -15 7 -18z m-9242 -11 c1 -9 0 -13 -4 -10 -3 4 -7 14 -8
22 -1 9 0 13 4 10 3 -4 7 -14 8 -22z m-116 -4 c0 -5 -2 -10 -4 -10 -3 0 -8 5
-11 10 -3 6 -1 10 4 10 6 0 11 -4 11 -10z m1187 -21 c1 -22 1 -23 -4 -1 -2 12
-9 20 -14 17 -5 -4 -9 -1 -9 5 0 23 25 3 27 -21z m112 17 c11 -14 6 -15 -27
-7 -4 1 8 21 12 21 2 0 9 -6 15 -14z m7974 -11 c-3 -9 -8 -14 -10 -11 -3 3 -2
9 2 15 9 16 15 13 8 -4z m-8182 -12 c13 -16 12 -17 -3 -4 -10 7 -18 15 -18 17
0 8 8 3 21 -13z m-1071 -14 c0 -4 -9 -7 -19 -6 -11 0 -18 4 -16 7 6 9 35 8 35
-1z m75 2 c3 -5 2 -12 -3 -15 -5 -3 -9 1 -9 9 0 17 3 19 12 6z m1705 5 c0 -3
-4 -8 -10 -11 -5 -3 -10 -1 -10 4 0 6 5 11 10 11 6 0 10 -2 10 -4z m7396 -8
c3 -4 -1 -5 -10 -4 -8 1 -18 5 -22 8 -3 4 1 5 10 4 8 -1 18 -5 22 -8z m-8043
-13 c-3 -9 -8 -14 -10 -11 -3 3 -2 9 2 15 9 16 15 13 8 -4z m-1103 1 c0 -2 -8
-10 -17 -17 -16 -13 -17 -12 -4 4 13 16 21 21 21 13z m1188 -13 c-2 -9 -11
-17 -21 -19 -9 -1 -15 2 -11 7 3 5 10 6 16 3 7 -5 9 -1 5 9 -3 10 -2 17 4 17
6 0 9 -7 7 -17z m8353 -6 c-10 -9 -11 -8 -5 6 3 10 9 15 12 12 3 -3 0 -11 -7
-18z m-8412 0 c8 -10 7 -14 -2 -14 -8 0 -14 6 -14 14 0 7 1 13 2 13 2 0 8 -6
14 -13z m-1109 -1 c0 -2 -8 -10 -17 -17 -16 -13 -17 -12 -4 4 13 16 21 21 21
13z m9147 -21 c0 -8 -4 -12 -9 -9 -5 3 -6 10 -3 15 9 13 12 11 12 -6z m-9207
1 c0 -2 -8 -10 -17 -17 -16 -13 -17 -12 -4 4 13 16 21 21 21 13z m100 -2 c0
-8 -19 -13 -24 -6 -3 5 1 9 9 9 8 0 15 -2 15 -3z m1150 -2 c0 -5 -7 -9 -15 -9
-8 0 -12 4 -9 9 3 4 9 8 15 8 5 0 9 -4 9 -8z m760 4 c0 -2 -7 -7 -16 -10 -8
-3 -12 -2 -9 4 6 10 25 14 25 6z m-783 -45 c0 -11 -5 -18 -9 -15 -4 3 -5 11
-1 19 7 21 12 19 10 -4z m-1220 -8 c0 -8 -4 -10 -12 -3 -7 5 -16 6 -20 2 -5
-4 -5 -2 -2 4 9 15 34 13 34 -3z m43 7 c0 -5 -2 -10 -4 -10 -3 0 -8 5 -11 10
-3 6 -1 10 4 10 6 0 11 -4 11 -10z m1494 -2 c-5 -7 -2 -9 7 -6 21 8 19 -32 -3
-56 -16 -18 -16 -19 5 -37 20 -16 18 -19 -10 -19 -5 0 -8 6 -8 13 0 6 -8 11
-17 11 -11 -1 -15 5 -12 19 2 11 6 22 10 26 4 3 4 -3 0 -14 -5 -16 -2 -15 14
5 20 26 21 47 1 43 -15 -4 -14 14 2 20 18 8 19 8 11 -5z m8819 -11 c4 3 7 1 7
-6 0 -8 -7 -11 -17 -7 -15 5 -15 4 1 -9 11 -8 24 -15 29 -15 6 0 2 -9 -8 -20
-20 -22 -8 -28 15 -7 12 10 12 9 2 -4 -6 -9 -8 -19 -4 -24 4 -4 -3 -2 -16 4
-19 10 -21 15 -11 27 10 12 8 17 -7 29 -10 8 -22 15 -26 15 -4 0 -5 7 -2 15 5
11 10 13 19 5 6 -5 15 -7 18 -3z m-10284 -20 c0 -9 -2 -8 -6 1 -2 6 -10 9 -15
6 -7 -4 -8 -2 -4 5 9 13 26 5 25 -12z m56 13 c-3 -5 -12 -10 -18 -10 -7 0 -6
4 3 10 19 12 23 12 15 0z m35 -5 c-5 -7 -9 -14 -7 -16 1 -2 0 -3 -2 -1 -11 7
-7 29 5 29 9 0 11 -4 4 -12z m-140 -15 c0 -5 -4 -10 -10 -10 -5 0 -10 5 -10
10 0 6 5 10 10 10 6 0 10 -4 10 -10z m1220 -2 c0 -4 -4 -8 -9 -8 -6 0 -12 4
-15 8 -3 5 1 9 9 9 8 0 15 -4 15 -9z m75 2 c17 -8 16 -8 -7 -7 -16 1 -28 5
-28 9 0 10 9 9 35 -2z m-1180 -9 c3 -5 0 -13 -6 -17 -7 -4 -9 -3 -5 4 3 6 -3
12 -16 15 -23 4 -23 4 -1 6 12 0 24 -3 28 -8z m-55 -11 c0 -5 -4 -10 -10 -10
-5 0 -10 5 -10 10 0 6 5 10 10 10 6 0 10 -4 10 -10z m73 -20 c-3 -12 -8 -19
-11 -16 -5 6 5 36 12 36 2 0 2 -9 -1 -20z m1203 11 c8 7 16 10 19 7 2 -2 -9
-12 -24 -21 -29 -17 -29 -17 -23 5 3 13 7 17 10 10 3 -10 7 -10 18 -1z m-1366
-7 c0 -8 -19 -13 -24 -6 -3 5 1 9 9 9 8 0 15 -2 15 -3z m70 -4 c8 -5 11 -10 5
-10 -5 0 -17 5 -25 10 -8 5 -10 10 -5 10 6 0 17 -5 25 -10z m55 -1 c11 -16 1
-19 -13 -3 -7 8 -8 14 -3 14 5 0 13 -5 16 -11z m1130 1 c3 -6 -1 -7 -9 -4 -18
7 -21 14 -7 14 6 0 13 -4 16 -10z m9076 -18 c-7 -2 -18 1 -23 6 -8 8 -4 9 13
5 13 -4 18 -8 10 -11z m-10330 -15 c-10 -9 -11 -8 -5 6 3 10 9 15 12 12 3 -3
0 -11 -7 -18z m99 -33 c0 5 -8 18 -17 29 -10 11 -12 17 -5 13 6 -4 12 -2 12 3
0 6 5 11 11 11 8 0 9 -4 0 -13 -11 -14 -5 -27 11 -27 5 0 7 4 3 9 -7 12 55 5
68 -8 5 -5 4 -12 -4 -16 -8 -5 -10 -4 -5 3 4 7 3 12 -3 12 -5 0 -18 3 -28 7
-14 5 -13 0 7 -22 14 -16 19 -25 13 -21 -7 4 -13 3 -13 -3 0 -14 18 -23 25
-12 3 6 16 0 28 -12 13 -12 20 -26 16 -32 -14 -21 -6 -44 15 -42 13 1 21 -4
21 -13 0 -8 9 -21 20 -28 17 -11 17 -12 2 -8 -11 4 -16 2 -11 -5 3 -6 14 -9
23 -6 11 3 17 -2 17 -14 0 -11 -4 -15 -11 -10 -15 12 -45 9 -38 -3 4 -6 0 -5
-9 2 -14 11 -18 10 -27 -5 -6 -10 -11 -14 -11 -9 0 5 -9 1 -20 -9 -11 -10 -20
-14 -20 -9 1 12 22 40 35 45 5 2 9 8 7 12 -1 4 7 3 19 -4 17 -9 20 -8 14 2 -5
8 -4 10 3 5 8 -5 10 -1 6 9 -5 11 -10 13 -17 6 -5 -5 -16 -7 -25 -3 -11 4 -14
1 -10 -10 4 -8 1 -15 -7 -15 -10 0 -11 5 -5 17 6 11 5 22 -3 30 -10 12 -9 12
3 3 11 -8 20 -9 30 -1 13 8 12 9 -1 5 -9 -3 -21 -1 -26 4 -14 14 -55 20 -47 7
5 -7 2 -8 -7 -3 -12 8 -12 6 -1 -8 12 -14 11 -16 -8 -12 -17 3 -19 1 -11 -9 6
-7 10 -15 8 -17 -1 -2 2 -1 7 3 5 4 15 3 23 -3 9 -8 13 -8 13 -1 0 6 -5 13
-10 15 -6 3 -5 4 2 3 7 -2 12 -12 10 -22 -2 -10 -4 -25 -4 -31 -1 -7 -5 -13
-10 -13 -4 0 -3 -9 4 -20 9 -14 14 -16 20 -7 6 9 8 9 8 -1 0 -7 5 -10 11 -6 8
4 7 9 -2 15 -16 10 -16 10 34 14 32 3 36 1 26 -11 -6 -7 -16 -11 -21 -8 -15
10 -37 -28 -27 -47 4 -9 5 -19 2 -23 -6 -5 12 -10 30 -7 11 2 9 -17 -3 -24
-13 -8 -2 -27 13 -22 7 2 20 -3 30 -11 14 -12 20 -13 30 -3 9 10 8 11 -5 6
-11 -4 -18 -2 -18 4 0 6 5 11 10 11 6 0 10 5 10 11 0 8 -4 8 -12 2 -23 -18
-47 -11 -45 11 1 12 -3 20 -10 19 -6 -1 -14 4 -17 12 -3 10 0 12 11 8 9 -4 21
1 29 12 13 17 14 16 24 -9 5 -15 14 -25 19 -21 5 3 12 -3 15 -12 4 -14 4 -14
3 2 -1 11 -6 18 -11 15 -13 -7 -29 41 -17 53 5 5 7 17 4 26 -4 14 -3 14 6 1 6
-8 8 -22 5 -32 -5 -16 32 -51 46 -43 4 3 15 -4 25 -15 13 -14 14 -20 5 -20 -7
0 -10 -3 -7 -7 4 -3 16 2 27 12 21 19 28 7 8 -13 -9 -9 -9 -12 0 -12 7 0 12 5
12 10 0 16 21 12 43 -7 19 -18 70 -26 60 -11 -2 5 -14 6 -26 2 -26 -8 -21 -2
11 15 18 9 22 9 20 -1 -2 -7 2 -12 8 -11 6 1 10 -9 9 -22 -2 -17 1 -22 11 -18
8 3 14 9 14 15 0 5 -5 6 -12 2 -7 -5 -8 -3 -3 6 6 10 11 10 20 -3 7 -9 16 -13
20 -9 5 4 5 1 1 -6 -4 -7 -11 -10 -16 -7 -5 3 -11 1 -15 -4 -6 -10 33 -6 43 4
9 9 32 -17 25 -29 -4 -6 1 -5 10 2 15 12 16 11 13 -15 -3 -20 0 -30 10 -30 10
0 11 4 2 14 -16 19 -4 27 29 18 15 -5 31 -9 35 -9 3 -1 9 -4 13 -8 4 -4 13 -4
20 -1 9 3 13 -2 12 -16 -1 -12 -5 -21 -10 -21 -5 0 -7 6 -4 13 3 8 -1 14 -8
14 -10 0 -11 -5 -4 -19 11 -20 25 -23 34 -8 3 6 15 5 31 -2 22 -10 28 -9 38 4
11 15 14 14 30 -7 13 -18 25 -23 47 -20 16 2 27 0 24 -5 -3 -5 -1 -11 4 -14 5
-4 11 -1 14 6 2 7 3 5 2 -4 -2 -10 1 -18 6 -18 5 0 9 6 9 13 1 6 8 -1 16 -16
13 -24 13 -31 2 -45 -11 -15 -11 -15 3 -4 13 10 18 10 28 -1 6 -8 8 -17 4 -20
-3 -4 -1 -7 4 -7 6 0 14 6 16 13 4 9 8 9 15 -2 6 -8 15 -10 22 -6 9 5 11 4 6
-4 -4 -7 -5 -19 -2 -27 4 -11 10 -12 25 -4 16 8 27 5 55 -14 19 -13 32 -27 28
-31 -4 -4 3 -2 16 4 21 11 22 10 18 -13 -3 -19 -1 -23 10 -19 8 3 13 12 10 19
-3 7 -1 16 3 19 5 2 11 -6 13 -20 3 -14 1 -25 -5 -25 -6 0 -7 -3 -4 -6 4 -4
13 -1 22 6 8 7 15 9 15 6 0 -4 10 -2 21 5 12 6 19 7 15 1 -3 -5 1 -15 9 -22 8
-7 13 -16 10 -20 -3 -4 2 -13 11 -20 12 -11 12 -15 2 -21 -10 -7 -10 -9 2 -9
14 0 90 -123 90 -144 0 -4 -14 3 -31 16 -94 70 -398 228 -439 228 -6 0 -8 4
-5 10 3 5 0 7 -8 4 -7 -2 -27 1 -43 7 -16 7 -31 13 -34 14 -128 37 -130 38
-119 51 16 19 4 18 -15 -2 -10 -10 -16 -11 -16 -4 0 7 -7 10 -17 6 -15 -5 -14
-3 2 10 15 12 16 15 3 11 -22 -8 -30 3 -16 22 10 12 7 12 -8 -2 -11 -9 -24
-14 -29 -10 -4 5 -5 2 -1 -5 4 -7 12 -10 17 -7 5 4 9 2 9 -3 0 -6 -7 -12 -15
-16 -8 -3 -14 -2 -14 2 3 19 -3 22 -21 12 -16 -8 -18 -8 -14 4 4 12 -2 14 -28
11 -33 -4 -33 -4 -8 10 22 12 27 11 43 -2 10 -10 17 -12 17 -5 0 7 -5 12 -11
12 -5 0 -7 5 -3 12 5 7 3 8 -6 3 -10 -6 -12 -4 -7 8 3 9 2 19 -4 22 -5 4 -9 3
-8 -2 5 -30 -4 -32 -36 -7 -19 14 -32 31 -28 38 3 6 3 8 -2 4 -4 -4 -15 -2
-24 4 -9 7 -5 0 8 -15 14 -15 20 -27 13 -27 -6 0 -20 12 -31 26 -24 30 -29 20
-6 -10 8 -11 15 -25 15 -30 0 -6 -5 -3 -11 7 -6 9 -15 14 -21 11 -7 -5 -8 -2
-3 6 6 10 4 12 -8 7 -9 -3 -19 -2 -23 4 -3 6 -12 8 -20 5 -22 -8 -17 2 7 15
17 9 20 8 14 -2 -6 -8 -4 -10 5 -4 9 6 11 4 5 -5 -5 -9 -4 -11 4 -6 18 11 -6
36 -27 29 -15 -6 -16 -5 -2 12 9 11 10 16 3 11 -7 -4 -13 -3 -13 2 0 12 -49
34 -60 27 -5 -3 -11 -1 -15 5 -3 5 2 10 12 11 13 0 11 3 -7 10 -14 6 -35 22
-48 37 l-23 27 17 -27 c14 -25 15 -28 1 -34 -9 -3 -13 -12 -10 -21 3 -8 -6 -3
-21 12 -14 14 -31 23 -36 20 -6 -3 -10 -1 -10 4 0 6 5 11 11 11 5 0 7 5 4 10
-5 8 -12 7 -23 -2 -12 -10 -14 -10 -8 0 6 11 -4 16 -26 13 -4 0 -5 11 -2 25 3
16 1 23 -6 19 -5 -3 -10 -1 -10 4 0 6 -6 11 -14 11 -8 0 -18 5 -22 11 -4 7 0
9 14 5 19 -6 20 -5 9 18 -6 13 -15 22 -19 19 -5 -2 -5 -9 -2 -15 4 -7 2 -8 -5
-4 -6 4 -9 12 -6 17 6 8 -8 13 -28 10 -4 -1 -10 6 -13 14 -3 8 -10 12 -15 9
-5 -3 -9 0 -9 5 0 6 5 11 11 11 5 0 7 5 3 12 -4 6 -3 8 4 4 6 -3 13 -2 17 4 4
6 11 7 17 4 7 -4 8 -2 4 5 -4 6 -16 9 -27 6 -11 -4 -19 -2 -19 5 0 6 -5 8 -12
4 -8 -5 -7 0 2 11 14 17 13 18 -2 12 -13 -4 -15 -2 -11 10 5 12 3 14 -8 8 -12
-8 -12 -6 0 8 8 10 11 20 7 24 -3 4 -13 -2 -21 -13 -14 -18 -14 -17 -4 8 7 15
15 25 19 23 4 -3 14 3 21 12 12 14 11 15 -10 8 -20 -6 -23 -4 -18 9 4 9 -1 20
-11 25 -9 6 -13 11 -9 11 5 0 1 10 -7 22 -9 12 -16 27 -16 32 0 6 14 -11 30
-38 18 -28 35 -44 41 -40 8 5 6 10 -5 16 -9 5 -14 13 -11 19 4 5 2 9 -2 9 -5
0 -17 15 -27 33 l-19 32 31 -35 c17 -19 31 -31 32 -26z m120 30 c0 -8 -19 -13
-24 -6 -3 5 1 9 9 9 8 0 15 -2 15 -3z m1120 2 c0 -2 -8 -10 -17 -17 -16 -13
-17 -12 -4 4 13 16 21 21 21 13z m70 -8 c0 -3 -9 -6 -20 -5 -11 1 -20 5 -20 9
0 3 9 6 20 5 11 -1 20 -5 20 -9z m-1381 -27 c8 -14 7 -20 -2 -24 -7 -3 -12 5
-12 19 0 29 1 29 14 5z m1336 9 c3 -5 1 -10 -4 -10 -6 0 -11 5 -11 10 0 6 2
10 4 10 3 0 8 -4 11 -10z m103 -15 c-3 -3 -9 2 -12 12 -6 14 -5 15 5 6 7 -7
10 -15 7 -18z m-1264 3 c-5 -7 -2 -9 8 -5 17 6 19 -16 3 -30 -4 -4 -5 -3 -2 3
4 7 0 15 -9 18 -13 5 -12 26 2 26 3 0 2 -5 -2 -12z m1243 -18 c-2 -23 -10 -17
-12 10 -1 10 2 17 6 14 4 -2 7 -13 6 -24z m57 -9 c3 -5 -2 -15 -12 -22 -15
-12 -16 -12 -5 2 7 9 10 19 6 22 -3 4 -4 7 0 7 3 0 8 -4 11 -9z m-1240 -17 c3
-8 2 -13 -3 -9 -5 3 -11 0 -13 -7 -3 -7 -7 -5 -11 6 -4 10 -3 15 3 11 6 -3 10
-1 10 4 0 16 7 13 14 -5z m-240 -10 c3 -8 2 -12 -4 -9 -6 3 -10 10 -10 16 0
14 7 11 14 -7z m36 6 c0 -5 -7 -7 -15 -4 -8 4 -15 8 -15 10 0 2 7 4 15 4 8 0
15 -4 15 -10z m1466 -5 c-1 -8 -5 -17 -8 -21 -5 -4 -4 16 1 34 3 9 9 -1 7 -13z
m104 11 c0 -3 -4 -8 -10 -11 -5 -3 -10 -1 -10 4 0 6 5 11 10 11 6 0 10 -2 10
-4z m87 -3 c-4 -3 7 -14 23 -24 29 -18 41 -49 19 -49 -6 0 -9 7 -6 15 4 8 1
17 -5 21 -7 4 -8 3 -4 -4 4 -7 2 -12 -4 -12 -6 0 -9 -4 -6 -8 3 -5 -5 -8 -17
-7 -14 1 -21 8 -19 18 1 8 -2 19 -8 22 -7 5 -5 12 7 21 19 14 31 19 20 7z
m414 -8 c11 6 11 5 2 -5 -12 -14 -33 -6 -33 13 0 8 3 7 9 -2 5 -8 14 -10 22
-6z m-661 -9 c0 -3 -4 -8 -10 -11 -5 -3 -10 -1 -10 4 0 6 5 11 10 11 6 0 10
-2 10 -4z m-1410 -10 c0 -2 -7 -7 -16 -10 -8 -3 -12 -2 -9 4 6 10 25 14 25 6z
m232 -50 c3 3 9 0 14 -7 4 -8 3 -10 -4 -5 -7 4 -12 2 -12 -3 0 -6 -5 -11 -11
-11 -5 0 -8 4 -5 9 3 4 -1 17 -9 27 -8 10 -14 24 -15 29 0 6 8 -2 18 -18 10
-15 21 -25 24 -21z m12 32 c-3 -4 -11 -5 -19 -1 -21 7 -19 12 4 10 11 0 18 -5
15 -9z m1242 -34 c1 -9 0 -13 -4 -10 -3 4 -7 14 -8 22 -1 9 0 13 4 10 3 -4 7
-14 8 -22z m859 16 c3 -5 1 -10 -4 -10 -6 0 -11 5 -11 10 0 6 2 10 4 10 3 0 8
-4 11 -10z m-10 -29 c-6 -5 -25 10 -25 20 0 5 6 4 14 -3 8 -7 12 -15 11 -17z
m106 -14 c-11 -11 -43 -6 -41 7 1 5 -4 13 -12 18 -10 8 -10 9 2 5 8 -2 14 -10
13 -16 -2 -6 7 -11 19 -11 21 0 21 0 2 23 l-19 22 23 -19 c14 -12 19 -23 13
-29z m-2321 9 c14 -18 14 -18 -7 -6 -12 8 -19 18 -16 23 3 4 6 7 7 5 1 -2 8
-12 16 -22z m2253 10 c4 -10 1 -13 -9 -9 -15 6 -19 23 -5 23 5 0 11 -7 14 -14z
m102 -4 c-3 -3 -11 0 -18 7 -9 10 -8 11 6 5 10 -3 15 -9 12 -12z m28 -7 c-3
-9 -8 -14 -10 -11 -3 3 -2 9 2 15 9 16 15 13 8 -4z m-2499 -4 c3 -5 -2 -15
-12 -22 -15 -12 -16 -12 -5 2 7 9 10 19 6 22 -3 4 -4 7 0 7 3 0 8 -4 11 -9z
m270 1 c2 -4 -5 -9 -17 -9 -17 -2 -19 0 -7 7 18 12 18 12 24 2z m1096 4 c0 -2
-7 -7 -16 -10 -8 -3 -12 -2 -9 4 6 10 25 14 25 6z m279 -39 c0 -9 -2 -8 -6 1
-3 9 -9 10 -17 3 -8 -7 -12 -5 -12 9 0 15 4 16 18 9 10 -5 18 -15 17 -22z
m198 11 c-2 -12 -10 -24 -18 -26 -11 -3 -12 -2 -1 6 8 5 13 12 13 16 -2 15 -1
26 4 26 3 0 3 -10 2 -22z m37 7 c-4 -8 -10 -15 -15 -15 -4 0 -6 7 -3 15 4 8
10 15 15 15 4 0 6 -7 3 -15z m466 -3 c0 -10 -6 -24 -12 -31 -11 -10 -7 -17 17
-37 17 -13 25 -24 19 -24 -21 0 -56 42 -48 59 4 9 7 24 8 34 1 23 16 22 16 -1z
m185 0 c-3 -3 -11 0 -18 7 -9 10 -8 11 6 5 10 -3 15 -9 12 -12z m-1110 -2 c3
-5 1 -10 -4 -10 -6 0 -11 5 -11 10 0 6 2 10 4 10 3 0 8 -4 11 -10z m979 -30
c-6 -5 -24 21 -24 34 0 6 6 1 14 -10 8 -10 12 -21 10 -24z m57 3 c-11 -16 -11
-16 -6 4 5 19 3 22 -12 17 -15 -5 -15 -4 -3 5 21 14 35 -3 21 -26z m-2421 2
c0 -2 -9 -3 -19 -2 -11 0 -18 5 -15 9 4 6 34 0 34 -7z m265 -3 c-3 -3 -11 0
-18 7 -9 10 -8 11 6 5 10 -3 15 -9 12 -12z m1744 -26 c0 -7 -2 -6 -6 2 -2 6
-9 12 -14 12 -6 0 -7 -5 -3 -12 4 -7 3 -8 -5 -4 -6 4 -9 12 -6 17 4 5 1 9 -4
9 -6 0 -11 5 -11 10 0 6 11 3 25 -6 14 -9 25 -21 24 -28z m-1779 18 c0 -9 6
-14 13 -11 8 3 20 1 28 -5 11 -8 10 -9 -4 -4 -15 5 -17 2 -12 -17 4 -15 3 -18
-3 -9 -7 11 -11 10 -16 -4 -3 -9 -4 -19 -1 -22 3 -3 5 0 5 6 0 16 21 11 38 -8
8 -8 11 -10 8 -4 -3 7 2 18 12 25 16 13 16 13 2 -5 -13 -18 -13 -19 0 -14 8 3
24 1 35 -4 18 -8 18 -8 -2 -4 -13 2 -23 1 -23 -4 0 -9 -62 -6 -78 4 -6 3 -9
20 -7 36 2 17 0 30 -4 30 -4 0 -8 7 -8 15 0 8 4 15 9 15 4 0 8 -7 8 -16z
m2102 9 c-15 -6 -6 -23 11 -19 7 1 9 1 4 -1 -4 -3 -4 -10 0 -16 4 -7 -2 -5
-13 3 -10 8 -21 15 -23 17 -7 4 11 23 22 22 9 0 8 -2 -1 -6z m69 -23 c5 0 9
-5 9 -11 0 -8 -4 -8 -14 0 -11 10 -17 8 -26 -6 -6 -10 -9 -11 -6 -3 3 8 9 24
13 35 6 18 8 18 11 3 2 -10 8 -18 13 -18z m111 7 c-7 -8 -9 -17 -5 -20 3 -4 1
-7 -5 -7 -7 0 -12 2 -12 5 0 10 24 44 29 40 2 -3 -1 -11 -7 -18z m135 8 c0 -8
-3 -13 -5 -10 -3 3 -10 0 -17 -5 -8 -7 -12 -5 -12 5 0 8 4 12 8 9 4 -2 10 0
14 6 9 14 12 13 12 -5z m-2453 -21 c0 -29 -41 -66 -65 -59 -16 5 -18 10 -8 21
6 7 16 11 21 8 13 -8 37 27 30 44 -3 10 0 13 9 10 7 -2 13 -13 13 -24z m1646
22 c0 -2 -9 -6 -20 -9 -11 -3 -18 -1 -14 4 5 9 34 13 34 5z m610 -6 c0 -5 -4
-10 -10 -10 -5 0 -10 5 -10 10 0 6 5 10 10 10 6 0 10 -4 10 -10z m30 0 c0 -5
-2 -10 -4 -10 -3 0 -8 5 -11 10 -3 6 -1 10 4 10 6 0 11 -4 11 -10z m96 -3 c4
-3 -4 -4 -16 -2 -30 6 -40 16 -12 12 12 -2 24 -6 28 -10z m-901 -15 c-3 -3
-11 0 -18 7 -9 10 -8 11 6 5 10 -3 15 -9 12 -12z m169 -1 c3 -5 0 -14 -8 -20
-10 -9 -15 -8 -19 3 -4 11 -1 13 10 9 11 -4 14 -2 9 5 -4 7 -5 12 -2 12 3 0 7
-4 10 -9z m42 0 c-3 -5 1 -12 10 -15 22 -8 24 -8 22 6 -4 15 31 23 43 11 6 -6
1 -17 -13 -29 l-23 -19 19 23 c19 22 19 22 -3 22 -12 0 -19 -4 -16 -10 3 -6
-1 -13 -9 -16 -9 -3 -13 -11 -9 -17 3 -6 1 -7 -6 -3 -6 4 -8 12 -5 18 5 7 2 9
-8 5 -11 -4 -15 -1 -13 11 5 23 4 22 11 22 3 0 3 -4 0 -9z m164 -32 c0 -14
-19 -19 -26 -8 -4 8 -3 9 4 5 15 -9 15 -1 1 27 -10 21 -10 21 5 3 9 -11 16
-23 16 -27z m160 -14 c0 -5 -9 1 -20 15 -11 14 -20 30 -20 35 0 6 9 -1 20 -15
11 -14 20 -29 20 -35z m385 45 c-4 -6 -1 -19 6 -28 12 -16 12 -16 -5 0 -16 14
-15 38 0 38 3 0 2 -5 -1 -10z m-857 -25 c2 -1 -4 -5 -13 -9 -11 -4 -14 -2 -9
6 5 7 2 9 -8 6 -8 -4 -15 0 -15 7 0 11 5 11 21 3 12 -6 22 -12 24 -13z m682
-12 c-11 -17 -11 -17 -6 0 3 10 6 24 7 30 0 9 2 9 5 0 3 -7 0 -20 -6 -30z m53
10 c-5 -12 -3 -14 7 -8 9 5 11 4 6 -4 -9 -15 -22 -7 -29 18 -3 13 -1 18 9 14
7 -2 10 -12 7 -20z m74 12 c0 -8 -4 -12 -8 -9 -4 2 -10 -2 -12 -8 -4 -8 -6 -7
-6 4 -1 9 5 19 12 21 6 3 12 6 13 6 0 1 1 -6 1 -14z m96 0 c-3 -9 -8 -14 -10
-11 -3 3 -2 9 2 15 9 16 15 13 8 -4z m-2353 1 c0 -3 -4 -8 -10 -11 -5 -3 -10
-1 -10 4 0 6 5 11 10 11 6 0 10 -2 10 -4z m1724 -5 c-9 -9 -34 -9 -34 -1 0 5
9 8 20 7 10 -1 17 -3 14 -6z m81 -1 c3 -5 2 -10 -4 -10 -5 0 -13 5 -16 10 -3
6 -2 10 4 10 5 0 13 -4 16 -10z m300 0 c3 -5 1 -10 -4 -10 -6 0 -11 5 -11 10
0 6 2 10 4 10 3 0 8 -4 11 -10z m272 3 c-4 -3 -1 -13 6 -22 11 -14 10 -14 -5
-2 -16 12 -16 31 -1 31 4 0 3 -3 0 -7z m-703 -24 c-4 -8 1 -9 17 -4 13 4 22 6
19 4 -3 -2 -14 -12 -26 -22 -20 -16 -21 -16 -18 5 3 28 3 28 10 28 3 0 2 -5
-2 -11z m146 -22 c0 -9 -36 9 -44 22 -4 5 5 4 19 -2 14 -7 25 -16 25 -20z
m274 18 c11 -8 18 -17 15 -19 -2 -3 -15 4 -29 14 -14 11 -20 20 -15 19 6 0 19
-6 29 -14z m50 -15 c-10 -16 -20 -28 -22 -26 -4 5 28 56 35 56 2 0 -4 -13 -13
-30z m66 5 c-7 -8 -16 -15 -21 -15 -5 0 -1 8 9 18 20 22 31 19 12 -3z m334 17
c3 -5 -1 -9 -9 -9 -8 0 -12 4 -9 9 3 4 7 8 9 8 2 0 6 -4 9 -8z m-2780 -18 c3
-8 2 -12 -4 -9 -6 3 -10 10 -10 16 0 14 7 11 14 -7z m2310 -13 c-2 -3 -12 3
-22 13 -16 17 -16 18 5 5 12 -7 20 -15 17 -18z m207 -13 c-11 -11 -13 -10 -7
0 4 7 2 21 -5 30 -12 15 -11 15 6 0 16 -15 17 -20 6 -30z m80 25 c13 -16 12
-17 -3 -4 -10 7 -18 15 -18 17 0 8 8 3 21 -13z m-626 -3 c3 -5 1 -10 -4 -10
-6 0 -11 5 -11 10 0 6 2 10 4 10 3 0 8 -4 11 -10z m27 -22 c-8 -8 -9 -4 -5 13
4 13 8 18 11 10 2 -7 -1 -18 -6 -23z m198 22 c0 -5 -4 -10 -10 -10 -5 0 -10 5
-10 10 0 6 5 10 10 10 6 0 10 -4 10 -10z m28 -2 c-2 -4 6 -14 17 -23 19 -16
19 -16 -3 -5 -12 6 -20 15 -17 20 3 4 0 11 -5 13 -7 4 -6 5 0 4 7 -2 10 -6 8
-9z m323 -11 c-10 -9 -11 -8 -5 6 3 10 9 15 12 12 3 -3 0 -11 -7 -18z m-2233
1 c-2 -7 3 -12 10 -10 8 1 11 -2 8 -7 -4 -5 -2 -12 4 -16 5 -3 10 -1 10 5 0 6
5 8 11 5 6 -5 4 -12 -8 -20 -20 -15 -48 -1 -36 18 4 6 0 8 -10 4 -9 -3 -19 -2
-23 4 -4 7 -10 6 -18 0 -7 -6 -16 -8 -19 -4 -14 13 -6 21 17 19 14 -2 30 1 38
5 17 11 18 11 16 -3z m1413 -15 c13 -16 12 -17 -3 -4 -10 7 -18 15 -18 17 0 8
8 3 21 -13z m210 4 c-6 -8 -7 -18 -3 -22 4 -5 1 -5 -6 -1 -10 6 -10 11 -1 22
6 8 14 14 16 14 3 0 0 -6 -6 -13z m164 -9 c5 4 5 1 1 -5 -10 -18 -26 -16 -26
3 0 9 -5 12 -12 8 -7 -5 -8 -3 -3 6 6 10 11 10 20 -3 7 -9 16 -13 20 -9z m35
12 c0 -5 -4 -10 -10 -10 -5 0 -10 5 -10 10 0 6 5 10 10 10 6 0 10 -4 10 -10z
m257 3 c-4 -3 1 -12 11 -20 15 -13 15 -13 -6 -3 -19 9 -23 30 -5 30 4 0 3 -3
0 -7z m403 -3 c0 -5 -2 -10 -4 -10 -3 0 -8 5 -11 10 -3 6 -1 10 4 10 6 0 11
-4 11 -10z m-963 -15 c0 -8 -4 -15 -9 -15 -10 0 -11 14 -1 23 9 10 10 9 10 -8z
m336 -6 c-8 -8 -13 -7 -18 2 -5 8 -4 10 3 5 7 -4 12 -2 12 5 0 7 3 9 7 6 4 -4
2 -12 -4 -18z m47 2 c0 -5 -10 -11 -22 -14 -21 -5 -21 -5 -6 7 10 7 14 17 10
21 -4 5 -1 5 6 1 6 -4 12 -11 12 -15z m80 10 c0 -6 -5 -13 -12 -17 -6 -4 -8
-3 -4 4 3 5 0 13 -6 15 -8 3 -6 6 5 6 9 1 17 -3 17 -8z m60 -21 c0 -6 -9 -2
-20 7 -11 10 -20 19 -20 21 0 1 9 -2 20 -8 11 -6 20 -15 20 -20z m124 9 c3 -3
-5 -5 -19 -5 -13 0 -22 3 -19 7 4 8 30 6 38 -2z m81 2 c-9 -8 -36 -10 -30 -2
2 4 11 8 20 8 8 0 13 -3 10 -6z m-500 -21 c3 -6 -1 -7 -9 -4 -18 7 -21 14 -7
14 6 0 13 -4 16 -10z m197 3 c-6 -2 -9 -10 -6 -15 4 -7 2 -8 -5 -4 -13 9 -5
26 12 25 9 0 8 -2 -1 -6z m534 -19 c1 -9 0 -13 -4 -10 -3 4 -7 14 -8 22 -1 9
0 13 4 10 3 -4 7 -14 8 -22z m-932 0 c19 -19 21 -31 3 -15 -8 6 -18 7 -22 3
-5 -4 -5 -2 -2 5 4 6 1 14 -5 16 -9 4 -9 6 -1 6 6 1 19 -6 27 -15z m257 -1
c13 -16 12 -17 -3 -4 -10 7 -18 15 -18 17 0 8 8 3 21 -13z m54 8 c3 -5 2 -12
-3 -15 -5 -3 -9 1 -9 9 0 17 3 19 12 6z m320 -29 c-3 -3 1 -12 8 -21 11 -14
10 -14 -6 -2 -9 8 -15 16 -12 19 3 3 -3 15 -12 26 -18 21 -18 21 5 2 12 -11
20 -21 17 -24z m-495 24 c0 -3 -4 -8 -10 -11 -5 -3 -10 -1 -10 4 0 6 5 11 10
11 6 0 10 -2 10 -4z m357 -13 c0 -10 -4 -10 -16 -1 -9 7 -18 13 -20 15 -2 1 5
1 16 0 11 0 20 -7 20 -14z m194 0 c13 -16 12 -17 -3 -4 -10 7 -18 15 -18 17 0
8 8 3 21 -13z m49 7 c0 -5 -2 -10 -4 -10 -3 0 -8 5 -11 10 -3 6 -1 10 4 10 6
0 11 -4 11 -10z m-180 -4 c0 -2 -8 -10 -17 -17 -16 -13 -17 -12 -4 4 13 16 21
21 21 13z m-110 -9 c0 -2 -10 -12 -22 -23 l-23 -19 19 23 c18 21 26 27 26 19z
m447 -12 c0 -8 -4 -12 -9 -9 -5 3 -6 10 -3 15 9 13 12 11 12 -6z m-497 -11 c0
-8 -19 -13 -24 -6 -3 5 1 9 9 9 8 0 15 -2 15 -3z m415 -13 c3 -5 2 -12 -3 -15
-5 -3 -9 1 -9 9 0 17 3 19 12 6z m-2439 -19 c-9 -8 15 -32 26 -26 10 7 62 -25
54 -33 -3 -3 -17 2 -32 12 -19 12 -25 13 -22 3 3 -7 15 -19 29 -25 l24 -13
-27 2 c-15 1 -26 5 -25 8 3 8 -33 55 -38 52 -3 -2 -9 -2 -13 1 -4 2 0 2 8 0
11 -2 11 0 -2 10 -20 16 -14 29 8 20 8 -3 12 -8 10 -11z m1985 -9 c13 -16 12
-17 -3 -4 -10 7 -18 15 -18 17 0 8 8 3 21 -13z m114 -12 c3 -5 2 -12 -3 -15
-5 -3 -9 1 -9 9 0 17 3 19 12 6z m165 -6 c0 -7 -30 -13 -34 -7 -3 4 4 9 15 9
10 1 19 0 19 -2z m94 -7 c-3 -4 -11 -5 -19 -1 -21 7 -19 12 4 10 11 0 18 -5
15 -9z m-2369 -18 c10 -11 16 -20 13 -20 -3 0 -13 9 -23 20 -10 11 -16 20 -13
20 3 0 13 -9 23 -20z m478 6 c9 5 9 4 1 -5 -9 -10 -17 -10 -32 -2 -10 6 -23 7
-27 3 -5 -4 -5 -1 -1 6 5 9 12 9 27 2 11 -6 25 -8 32 -4z m1712 -75 c3 -5 2
-12 -3 -15 -5 -3 -9 1 -9 9 0 17 3 19 12 6z m-1968 -19 c-1 -21 -24 -26 -24
-6 0 7 4 11 9 8 4 -3 8 0 8 5 0 6 2 11 4 11 3 0 4 -8 3 -18z m460 12 c-3 -4 1
-13 9 -21 12 -12 18 -13 29 -3 11 9 15 9 15 1 0 -6 -5 -11 -11 -11 -5 0 -7 -5
-3 -12 5 -7 11 -5 21 7 11 16 13 16 13 3 0 -19 -27 -31 -36 -17 -3 6 -12 8
-19 5 -15 -5 -32 13 -29 32 3 20 4 22 11 22 3 0 4 -3 0 -6z m-432 -13 c3 -5 1
-12 -5 -16 -5 -3 -10 1 -10 9 0 18 6 21 15 7z m522 -61 c-1 -21 -27 -37 -27
-17 0 11 19 37 26 37 2 0 2 -9 1 -20z m41 -6 c-2 -10 3 -19 10 -21 8 -3 10 1
5 14 -6 17 -6 17 10 1 9 -9 26 -20 37 -23 27 -8 25 -20 -2 -22 -19 -2 -20 0
-8 8 12 9 10 10 -7 6 -25 -6 -77 29 -68 44 10 15 26 10 23 -7z m119 -56 c-3
-7 -5 -2 -5 12 0 14 2 19 5 13 2 -7 2 -19 0 -25z m21 -24 c-4 -11 -28 -14 -28
-4 0 8 22 20 28 14 2 -1 2 -6 0 -10z m9887 -558 c61 -4 187 -42 193 -58 2 -4
7 -6 12 -3 4 2 20 -7 34 -20 15 -14 30 -25 34 -25 16 0 122 -124 162 -190 42
-70 43 -73 42 -158 -1 -88 -2 -99 -16 -139 l-7 -22 -35 19 c-18 11 -34 18 -34
15 0 -4 -101 38 -135 57 -11 6 -33 15 -50 19 -29 7 -104 33 -135 46 -8 3 -22
7 -30 8 -8 1 -23 5 -32 8 -10 4 -26 10 -35 14 -10 3 -29 8 -42 9 -14 2 -36 8
-50 13 -14 6 -39 12 -56 15 -16 3 -68 14 -115 25 -47 11 -107 23 -135 26 -27
4 -53 9 -56 11 -4 2 -26 6 -50 9 -24 3 -45 7 -47 9 -1 2 19 20 45 39 53 39
133 120 180 182 29 37 86 68 150 80 10 2 18 4 18 5 0 1 23 4 50 7 28 2 52 6
53 8 2 2 9 2 15 0 7 -2 39 -6 72 -9z m-9490 -1326 c3 -6 -1 -7 -9 -4 -18 7
-21 14 -7 14 6 0 13 -4 16 -10z"/>
<path d="M10860 10649 c4 -28 0 -39 -17 -39 -17 -1 -17 -1 0 -11 9 -6 15 -14
12 -20 -4 -5 -2 -9 3 -9 12 0 38 31 33 39 -2 3 7 12 20 19 22 12 22 13 3 10
-11 -2 -29 4 -38 11 -16 13 -18 13 -16 0z m21 -32 c-6 -8 -7 -18 -3 -22 4 -5
1 -5 -6 -1 -10 6 -10 11 -1 22 6 8 14 14 16 14 3 0 0 -6 -6 -13z"/>
<path d="M10997 10629 c7 -7 15 -10 18 -7 3 3 -2 9 -12 12 -14 6 -15 5 -6 -5z"/>
<path d="M11057 10599 c4 -13 8 -18 11 -10 2 7 -1 18 -6 23 -8 8 -9 4 -5 -13z"/>
<path d="M11117 10599 c7 -7 15 -10 18 -7 3 3 -2 9 -12 12 -14 6 -15 5 -6 -5z"/>
<path d="M10935 10579 c-4 -6 -5 -12 -2 -15 2 -3 7 2 10 11 7 17 1 20 -8 4z"/>
<path d="M11076 10573 c-6 -14 -5 -15 5 -6 7 7 10 15 7 18 -3 3 -9 -2 -12 -12z"/>
<path d="M11150 10580 c0 -5 5 -10 10 -10 6 0 10 5 10 10 0 6 -4 10 -10 10 -5
0 -10 -4 -10 -10z"/>
<path d="M11030 10570 c-9 -6 -10 -10 -3 -10 6 0 15 5 18 10 8 12 4 12 -15 0z"/>
<path d="M10986 10555 c4 -8 11 -15 16 -15 6 0 5 6 -2 15 -7 8 -14 15 -16 15
-2 0 -1 -7 2 -15z"/>
<path d="M11095 10560 c-3 -5 -3 -10 1 -10 4 0 -1 -7 -12 -16 -18 -14 -18 -15
4 -4 12 6 20 15 17 20 -3 5 5 11 17 13 23 4 23 4 1 6 -12 0 -25 -3 -28 -9z"/>
<path d="M11055 10550 c6 -10 4 -12 -11 -6 -15 6 -17 5 -6 -5 9 -9 15 -10 23
-2 8 8 7 13 -2 18 -8 6 -10 4 -4 -5z"/>
<path d="M11141 10534 c12 -15 11 -16 -6 -11 -11 4 -26 3 -34 -2 -9 -6 -2 -8
20 -7 19 1 33 5 32 9 -2 4 -3 12 -3 17 0 6 -5 10 -11 10 -8 0 -7 -6 2 -16z"/>
<path d="M10919 10513 c-13 -17 -13 -17 6 -3 11 8 22 16 24 17 2 2 0 3 -6 3
-6 0 -17 -8 -24 -17z"/>
<path d="M10966 10518 c3 -4 9 -8 15 -8 5 0 9 4 9 8 0 5 -7 9 -15 9 -8 0 -12
-4 -9 -9z"/>
<path d="M11010 10520 c0 -5 5 -10 10 -10 6 0 10 5 10 10 0 6 -4 10 -10 10 -5
0 -10 -4 -10 -10z"/>
<path d="M10870 10501 c0 -6 5 -13 12 -17 6 -4 8 -3 4 4 -3 5 0 13 6 15 8 3 6
6 -4 6 -10 1 -18 -3 -18 -8z"/>
<path d="M10950 10490 c6 -11 15 -20 20 -20 6 0 2 9 -7 20 -10 11 -19 20 -21
20 -1 0 2 -9 8 -20z"/>
<path d="M11059 10503 c-1 -5 -1 -11 0 -15 2 -12 -17 -10 -22 2 -3 6 -4 5 -3
-2 2 -7 9 -13 17 -13 8 0 13 6 12 13 -5 20 15 14 22 -8 3 -11 11 -20 16 -20 5
0 2 11 -7 25 -16 24 -33 33 -35 18z"/>
<path d="M10993 10474 c0 -17 2 -22 7 -13 5 6 6 18 3 26 -8 19 -10 16 -10 -13z"/>
<path d="M10833 10475 c0 -8 6 -16 13 -19 7 -3 10 2 7 15 -6 22 -20 26 -20 4z"/>
<path d="M10910 10460 c0 -5 5 -10 10 -10 6 0 10 5 10 10 0 6 -4 10 -10 10 -5
0 -10 -4 -10 -10z"/>
<path d="M11002 10442 c-17 -22 -21 -23 -21 -9 -1 9 -6 17 -11 17 -7 0 -7 -6
0 -20 10 -19 40 -18 40 2 0 5 4 6 10 3 6 -3 7 1 4 10 -5 11 -2 14 10 9 9 -3
16 -4 16 -1 0 18 -31 11 -48 -11z"/>
<path d="M10827 10439 c7 -7 15 -10 18 -7 3 3 -2 9 -12 12 -14 6 -15 5 -6 -5z"/>
<path d="M10876 10439 c2 -4 -2 -10 -8 -12 -8 -4 -7 -6 3 -6 9 -1 19 5 22 12
3 8 -1 14 -9 14 -7 0 -11 -4 -8 -8z"/>
<path d="M10930 10440 c-9 -6 -10 -10 -3 -10 6 0 15 5 18 10 8 12 4 12 -15 0z"/>
<path d="M10800 10415 c-7 -9 -8 -15 -2 -15 5 0 12 7 16 15 3 8 4 15 2 15 -2
0 -9 -7 -16 -15z"/>
<path d="M10953 10414 c1 -10 6 -25 11 -32 4 -7 2 -19 -4 -27 -7 -9 -8 -15 -2
-15 14 0 24 29 15 43 -4 7 -8 18 -9 25 -2 8 -5 17 -8 20 -4 3 -5 -3 -3 -14z"/>
<path d="M10842 10398 c-15 -15 -15 -28 0 -28 6 0 8 3 5 7 -4 3 -2 12 4 20 14
16 7 17 -9 1z"/>
<path d="M10876 10398 c3 -4 11 -5 19 -1 21 7 19 12 -4 10 -11 0 -18 -5 -15
-9z"/>
<path d="M10755 10389 c-4 -6 -5 -12 -2 -15 2 -3 7 2 10 11 7 17 1 20 -8 4z"/>
<path d="M10786 10376 c5 -13 4 -17 -4 -12 -8 5 -10 2 -5 -10 6 -15 7 -15 16
1 6 11 5 21 -3 28 -8 9 -9 7 -4 -7z"/>
<path d="M10893 10377 c-3 -6 -1 -7 5 -3 7 4 12 2 12 -5 0 -8 5 -7 16 2 15 12
16 11 10 -11 -6 -22 -5 -22 4 -7 7 10 9 21 6 25 -11 10 -46 9 -53 -1z"/>
<path d="M10713 10355 c0 -8 4 -15 9 -15 4 0 8 7 8 15 0 8 -4 15 -8 15 -5 0
-9 -7 -9 -15z"/>
<path d="M10859 10363 c-1 -5 -1 -12 0 -17 1 -5 -5 -6 -14 -3 -8 4 -15 2 -15
-4 0 -6 8 -9 18 -7 9 2 16 10 14 17 -2 9 5 10 20 6 18 -5 20 -4 8 4 -18 13
-30 14 -31 4z"/>
<path d="M10756 10333 c-6 -14 -5 -15 5 -6 7 7 10 15 7 18 -3 3 -9 -2 -12 -12z"/>
<path d="M10900 10330 c-6 -11 -7 -20 -2 -20 6 0 12 9 15 20 3 11 3 20 1 20
-2 0 -8 -9 -14 -20z"/>
<path d="M10781 10314 c0 -11 3 -14 6 -6 3 7 2 16 -1 19 -3 4 -6 -2 -5 -13z"/>
<path d="M10810 10312 c9 -19 14 -21 26 -11 8 6 14 14 14 17 0 3 -5 1 -12 -6
-9 -9 -15 -7 -25 6 -13 15 -13 14 -3 -6z"/>
<path d="M10715 10299 c-4 -6 -5 -12 -2 -15 2 -3 7 2 10 11 7 17 1 20 -8 4z"/>
<path d="M10740 10306 c0 -2 7 -6 15 -10 8 -3 15 -1 15 4 0 6 -7 10 -15 10 -8
0 -15 -2 -15 -4z"/>
<path d="M10660 10275 c0 -9 -6 -12 -15 -9 -8 4 -15 2 -15 -4 0 -6 7 -9 16 -8
19 3 41 36 24 36 -5 0 -10 -7 -10 -15z"/>
<path d="M10737 10273 c5 -12 3 -14 -7 -8 -9 5 -11 4 -6 -4 4 -6 12 -9 17 -6
12 8 12 35 -1 35 -5 0 -6 -7 -3 -17z"/>
<path d="M10785 10280 c-3 -5 -2 -10 4 -10 5 0 13 5 16 10 3 6 2 10 -4 10 -5
0 -13 -4 -16 -10z"/>
<path d="M10676 10255 c-3 -9 -6 -22 -5 -28 0 -7 5 -1 10 12 5 13 8 26 5 28
-2 2 -6 -3 -10 -12z"/>
<path d="M10752 10249 c-10 -16 -17 -18 -25 -10 -6 6 -15 11 -20 11 -5 0 2 -9
17 -21 30 -24 44 -19 44 16 0 30 0 30 -16 4z m8 -19 c0 -5 -5 -10 -11 -10 -5
0 -7 5 -4 10 3 6 8 10 11 10 2 0 4 -4 4 -10z"/>
<path d="M10785 10249 c-4 -6 -5 -12 -2 -15 2 -3 7 2 10 11 7 17 1 20 -8 4z"/>
<path d="M10805 10529 c-4 -6 -5 -12 -2 -15 2 -3 7 2 10 11 7 17 1 20 -8 4z"/>
<path d="M10645 10411 c-3 -5 0 -13 6 -17 7 -4 9 -3 5 4 -3 5 0 13 6 15 9 4
10 6 1 6 -6 1 -14 -3 -18 -8z"/>
<path d="M11211 10381 c-15 -15 -18 -22 -7 -18 9 4 16 2 16 -3 0 -6 -7 -10
-15 -10 -8 0 -15 -5 -15 -10 0 -6 -11 -8 -24 -6 -16 3 -23 0 -22 -10 4 -26 16
-27 41 -4 14 13 25 19 25 14 1 -5 10 2 20 15 11 13 20 18 20 12 0 -6 5 -11 10
-11 18 0 10 19 -11 25 -19 6 -19 8 -3 19 12 9 13 13 3 12 -8 0 -25 -11 -38
-25z"/>
<path d="M10609 10344 c-7 -9 -14 -23 -15 -31 -2 -12 0 -12 15 1 10 9 20 13
24 10 3 -3 4 1 3 10 -3 24 -12 28 -27 10z m21 2 c0 -2 -8 -10 -17 -17 -16 -13
-17 -12 -4 4 13 16 21 21 21 13z"/>
<path d="M11053 10242 c0 -12 7 -24 13 -26 15 -6 12 20 -4 36 -8 8 -11 6 -9
-10z"/>
<path d="M11006 10233 c-4 -5 -13 -8 -19 -8 -5 0 -11 -10 -12 -22 -2 -32 12
-29 30 7 15 30 16 37 1 23z"/>
<path d="M10903 10152 c-14 -23 -2 -50 14 -30 11 14 14 48 4 48 -4 0 -11 -8
-18 -18z"/>
<path d="M10830 10086 c0 -2 7 -6 15 -10 8 -3 15 -1 15 4 0 6 -7 10 -15 10 -8
0 -15 -2 -15 -4z"/>
<path d="M10467 10073 c-6 -9 20 -27 32 -23 2 1 7 -4 12 -12 6 -9 8 -6 6 10
-1 14 -5 18 -11 12 -6 -6 -14 -3 -21 7 -8 10 -14 12 -18 6z"/>
<path d="M10725 10047 c3 -7 -3 -22 -15 -32 -11 -10 -20 -15 -20 -10 0 4 -7 2
-15 -5 -13 -11 -18 -10 -31 9 -11 15 -20 19 -27 13 -7 -5 -29 -8 -50 -7 -37 3
-57 -8 -37 -20 6 -4 7 -12 3 -18 -11 -18 -12 -38 -2 -31 16 9 31 -6 19 -21 -8
-10 -5 -12 15 -12 29 0 31 5 8 23 -16 11 -14 12 14 10 17 -1 30 2 27 6 -13 20
9 27 37 12 24 -12 34 -13 45 -3 8 6 12 14 9 17 -2 3 -10 0 -18 -6 -9 -8 -17
-8 -27 0 -12 8 -12 9 3 4 12 -4 16 -2 11 6 -5 7 -3 8 6 3 9 -5 11 -4 6 3 -5 8
-2 10 8 6 9 -3 16 -1 16 6 0 6 5 8 13 3 6 -4 24 -8 40 -9 25 -1 26 0 13 15 -8
9 -15 21 -15 26 -1 6 -4 10 -8 10 -5 0 -14 4 -20 8 -9 5 -11 3 -8 -6z m29 -18
c-3 -6 0 -15 7 -20 12 -8 -2 -8 -41 1 -5 1 31 30 38 30 2 0 0 -5 -4 -11z
m-119 -29 c-3 -4 1 -11 7 -14 9 -3 8 -5 -2 -4 -8 1 -26 -4 -40 -12 -26 -15
-56 -23 -46 -13 3 4 0 16 -8 28 -13 20 -12 21 15 21 16 0 29 -4 29 -8 0 -5
-10 -6 -22 -3 -22 7 -22 7 -3 -8 17 -13 54 -13 41 1 -9 8 15 33 25 26 5 -3 7
-9 4 -14z"/>
<path d="M10815 10040 c-3 -5 -1 -10 4 -10 6 0 11 5 11 10 0 6 -2 10 -4 10 -3
0 -8 -4 -11 -10z"/>
<path d="M10464 9964 c3 -8 6 -18 6 -20 0 -3 5 -2 10 1 15 9 12 22 -6 29 -12
5 -15 2 -10 -10z"/>
<path d="M11165 10412 c-12 -8 -13 -27 -4 -36 3 -4 12 1 19 9 14 17 2 39 -15
27z m6 -25 c-10 -9 -11 -8 -5 6 3 10 9 15 12 12 3 -3 0 -11 -7 -18z"/>
<path d="M11030 10320 c0 -5 5 -10 10 -10 6 0 10 5 10 10 0 6 -4 10 -10 10 -5
0 -10 -4 -10 -10z"/>
<path d="M10260 10349 c0 -5 5 -7 10 -4 6 3 10 8 10 11 0 2 -4 4 -10 4 -5 0
-10 -5 -10 -11z"/>
<path d="M10789 10113 c-13 -16 -12 -17 4 -4 9 7 17 15 17 17 0 8 -8 3 -21
-13z"/>
<path d="M10750 10085 c0 -2 6 -8 13 -14 10 -8 14 -7 14 2 0 8 -6 14 -14 14
-7 0 -13 -1 -13 -2z"/>
<path d="M2300 9895 c0 -2 11 -14 25 -27 13 -13 26 -34 29 -48 2 -14 5 -27 5
-29 1 -2 8 2 16 9 12 10 13 16 4 26 -6 8 -8 14 -4 14 5 0 0 9 -10 20 -10 11
-22 17 -26 14 -5 -3 -9 -1 -9 4 0 6 -7 12 -15 16 -8 3 -15 3 -15 1z m61 -42
c13 -16 12 -17 -3 -4 -17 13 -22 21 -14 21 2 0 10 -8 17 -17z m14 -32 c3 -5 2
-12 -3 -15 -5 -3 -9 1 -9 9 0 17 3 19 12 6z"/>
<path d="M2385 9771 c-6 -10 11 -24 33 -27 10 -2 8 3 -4 17 -20 22 -21 22 -29
10z"/>
<path d="M2478 9756 c-10 -14 -13 -28 -8 -36 5 -8 5 -19 -1 -26 -6 -8 -2 -10
16 -9 30 4 32 -6 5 -23 -11 -7 -20 -17 -20 -24 0 -6 8 -4 19 6 18 17 20 17 29
-1 5 -10 8 -23 6 -28 -3 -6 5 -11 15 -11 13 0 17 4 11 11 -5 6 -5 17 0 25 7
12 13 12 27 4 20 -12 24 -33 10 -51 -6 -9 -4 -15 7 -19 13 -5 14 -9 5 -20 -6
-8 -8 -15 -3 -16 5 0 14 -2 19 -3 6 -2 16 -3 23 -4 7 0 10 -6 6 -13 -4 -6 -3
-8 4 -4 6 3 13 2 17 -4 3 -5 11 -10 18 -10 6 0 -5 12 -26 27 -22 16 -36 32
-32 40 2 8 1 12 -3 9 -4 -2 -14 -1 -22 5 -8 5 -10 9 -4 9 6 0 17 14 24 30 13
30 30 40 30 18 0 -9 3 -8 9 2 15 22 3 30 -24 18 -13 -6 -22 -15 -19 -19 3 -5
1 -9 -5 -9 -20 0 -21 19 -1 33 18 13 19 15 5 21 -9 3 -14 2 -11 -3 3 -5 -1
-15 -10 -22 -13 -11 -14 -9 -9 13 4 16 2 29 -5 33 -8 5 -10 2 -6 -12 5 -14 1
-19 -14 -19 -23 0 -25 6 -7 26 10 12 9 12 -5 1 -10 -7 -18 -9 -18 -3 0 14 25
33 33 25 4 -3 7 -2 7 4 0 11 -48 12 -65 1 -6 -4 -17 -3 -25 3 -8 5 -13 9 -10
10 34 6 43 8 48 13 3 3 0 6 -7 6 -7 0 -9 5 -6 10 13 20 -11 9 -27 -14z m52
-36 c0 -5 -5 -10 -10 -10 -6 0 -3 -11 6 -24 10 -16 21 -23 31 -19 13 5 12 2
-3 -13 -17 -18 -20 -18 -29 -5 -5 9 -9 23 -10 31 0 8 -5 14 -12 13 -6 -1 -14
4 -17 13 -3 8 -2 12 3 9 5 -3 12 -1 16 5 8 13 25 13 25 0z"/>
<path d="M2594 9718 c-4 -7 -4 -10 1 -6 4 4 13 0 20 -9 9 -13 14 -13 20 -3 5
9 4 11 -3 6 -7 -4 -12 -1 -12 8 0 19 -16 21 -26 4z"/>
<path d="M2755 9649 c-10 -15 3 -25 16 -12 7 7 7 13 1 17 -6 3 -14 1 -17 -5z"/>
<path d="M2834 9603 c0 -10 6 -21 11 -25 6 -5 6 -8 -2 -8 -6 0 -15 5 -18 10
-3 6 -14 10 -23 10 -13 0 -12 -3 5 -15 12 -9 20 -22 17 -30 -3 -7 3 -18 15
-24 26 -14 28 -14 28 4 0 11 -7 14 -21 10 -18 -5 -19 -4 -4 5 11 7 15 19 12
36 -3 19 -1 24 8 18 10 -6 9 -3 -1 9 -17 22 -29 22 -27 0z"/>
<path d="M2897 9573 c-12 -11 -8 -24 6 -21 7 2 12 -1 12 -7 0 -5 -6 -9 -12 -7
-8 2 -10 -3 -7 -13 6 -14 9 -14 30 0 18 11 23 12 22 3 -2 -8 6 -13 19 -12 12
1 19 -4 17 -10 -3 -7 4 -12 15 -12 13 0 17 4 11 11 -6 7 -5 16 2 23 8 8 7 10
-3 9 -8 -2 -19 -5 -24 -9 -6 -4 -26 7 -44 23 -38 33 -35 31 -44 22z"/>
<path d="M2908 9504 c-32 -17 -33 -22 -13 -48 15 -19 45 -16 45 5 0 8 -4 8
-13 1 -10 -8 -16 -5 -26 11 -11 18 -11 20 0 10 19 -19 34 -16 18 4 -10 11 -10
14 -1 9 7 -4 12 -2 12 6 0 8 5 6 11 -5 6 -9 14 -15 20 -12 5 4 9 2 9 -4 0 -5
-5 -11 -11 -13 -14 -5 6 -48 21 -48 6 0 10 -6 10 -14 0 -11 20 -26 35 -26 9 0
35 33 35 43 -1 7 -10 1 -20 -12 -11 -13 -20 -19 -20 -14 0 5 6 15 13 22 10 10
6 11 -16 7 -24 -4 -27 -3 -17 10 14 16 -1 19 -17 3 -7 -7 -12 -6 -16 5 -4 10
-1 13 9 9 9 -3 14 0 12 8 -2 8 4 14 12 14 8 0 14 -5 13 -12 -2 -6 6 -11 17
-10 22 1 26 13 8 21 -7 3 2 3 20 0 34 -5 39 1 21 26 -9 13 -10 12 -5 -2 3 -12
1 -15 -9 -12 -8 3 -13 10 -12 14 1 4 -2 8 -8 8 -5 0 -9 -4 -7 -9 1 -5 -1 -9
-5 -10 -5 0 -18 -2 -31 -3 -13 -2 -27 4 -32 13 -5 9 -10 12 -10 7 0 -5 -6 -4
-12 2 -9 7 -21 6 -40 -4z"/>
<path d="M3103 9476 c4 -10 -1 -13 -18 -11 -14 1 -22 -2 -19 -6 5 -9 -11 -13
-31 -9 -5 1 -6 -2 -2 -7 5 -4 14 -8 20 -8 7 0 12 -8 12 -17 0 -9 4 -20 9 -25
5 -4 6 -3 2 5 -4 6 -2 12 3 12 6 0 11 -5 11 -11 0 -5 5 -7 10 -4 6 4 8 10 5
15 -3 5 3 14 14 20 18 9 19 14 9 35 -12 26 -34 36 -25 11z m6 -42 c-16 -8 -27
-9 -34 -3 -14 14 12 28 37 21 20 -5 19 -6 -3 -18z"/>
<path d="M3147 9450 c5 -17 8 -18 21 -8 13 11 14 11 8 0 -4 -7 -2 -19 4 -27 7
-8 10 -16 6 -16 -23 -5 -32 -3 -38 6 -5 6 -8 5 -8 -3 0 -7 7 -15 15 -18 8 -4
13 -9 11 -13 -3 -4 3 -7 12 -7 9 -1 24 -3 32 -5 11 -3 15 4 15 26 0 17 4 35 8
42 4 6 2 15 -4 19 -8 4 -9 3 -5 -4 10 -17 -6 -15 -32 4 -12 8 -22 12 -22 8 0
-3 -6 -1 -14 5 -12 10 -13 8 -9 -9z m58 -28 c-3 -3 0 -11 5 -17 7 -9 6 -16 -4
-24 -9 -8 -16 -8 -20 -2 -4 5 -2 13 4 16 8 5 8 11 1 19 -8 9 -7 13 4 13 8 0
13 -3 10 -5z"/>
<path d="M2796 9402 c-3 -5 1 -9 9 -9 8 0 12 4 9 9 -3 4 -7 8 -9 8 -2 0 -6 -4
-9 -8z"/>
<path d="M3276 9371 c-13 -15 -14 -20 -3 -29 10 -8 16 -6 25 9 8 12 9 19 1 19
-5 0 -7 5 -4 10 10 16 -1 11 -19 -9z"/>
<path d="M3320 9380 c-8 -5 -11 -10 -5 -10 5 0 4 -5 -2 -11 -6 -6 -9 -17 -6
-24 2 -8 -1 -12 -9 -11 -30 6 -48 19 -48 34 0 13 -2 14 -12 3 -11 -10 -9 -14
5 -22 9 -6 14 -15 11 -21 -4 -7 -2 -8 4 -4 7 4 12 2 12 -5 0 -9 3 -9 14 0 10
8 16 9 21 1 10 -16 21 -12 21 10 0 11 -4 20 -9 20 -5 0 -1 7 7 16 9 8 16 20
16 25 0 11 -1 11 -20 -1z"/>
<path d="M3345 9368 c-11 -17 -12 -24 -2 -30 9 -6 9 -8 -1 -8 -9 0 -11 -7 -7
-20 7 -23 -13 -28 -33 -8 -9 9 -12 9 -12 0 0 -17 37 -35 45 -21 5 6 12 4 21
-8 15 -20 15 -20 19 25 2 22 -2 35 -11 39 -11 4 -12 9 -3 19 8 10 15 11 24 4
8 -6 16 -7 19 -2 3 5 -6 14 -19 20 -21 10 -27 8 -40 -10z m25 -46 c0 -13 -12
-22 -22 -16 -10 6 -1 24 13 24 5 0 9 -4 9 -8z"/>
<path d="M2911 9343 c-12 -8 -20 -8 -31 0 -8 6 -4 -1 9 -16 16 -18 28 -24 35
-17 6 6 14 6 22 -1 14 -11 23 -2 29 30 3 15 -2 18 -22 17 -14 0 -33 -6 -42
-13z m19 -13 c-6 -11 -16 -17 -22 -14 -7 5 -5 12 7 21 25 18 28 17 15 -7z m32
3 c-6 -2 -9 -10 -6 -15 4 -7 2 -8 -5 -4 -13 9 -5 26 12 25 9 0 8 -2 -1 -6z"/>
<path d="M3516 9321 c-4 -6 -12 -8 -19 -5 -8 3 -13 -4 -13 -16 0 -11 3 -20 6
-20 9 0 42 41 37 47 -3 2 -8 0 -11 -6z"/>
<path d="M3442 9312 c-10 -7 -8 -13 7 -26 14 -13 20 -14 23 -4 6 15 -1 38 -11
38 -3 0 -12 -4 -19 -8z"/>
<path d="M3390 9274 c0 -8 5 -12 10 -9 6 3 10 10 10 16 0 5 -4 9 -10 9 -5 0
-10 -7 -10 -16z"/>
<path d="M2980 9270 c8 -5 20 -10 25 -10 6 0 3 5 -5 10 -8 5 -19 10 -25 10 -5
0 -3 -5 5 -10z"/>
<path d="M1266 9491 c-16 -17 -16 -19 0 -25 25 -9 47 15 29 31 -10 9 -16 8
-29 -6z"/>
<path d="M1281 9451 c-7 -5 -11 -13 -7 -19 3 -5 0 -15 -7 -21 -19 -15 -14 -54
6 -57 10 -1 15 2 12 6 -13 22 43 35 65 15 14 -13 16 -11 15 18 0 39 -13 60
-31 53 -7 -3 -16 -1 -19 4 -8 12 -16 12 -34 1z m33 -23 c-4 -6 1 -8 14 -4 11
4 23 2 27 -4 3 -5 1 -10 -6 -10 -8 0 -8 -5 2 -17 13 -17 13 -17 -7 0 -24 20
-38 22 -28 5 4 -7 4 -10 -1 -6 -4 4 -14 3 -21 -3 -21 -17 -38 0 -20 20 9 10
13 21 9 25 -4 4 1 4 11 0 15 -6 17 -4 11 6 -5 9 -4 11 4 6 6 -4 8 -12 5 -18z"/>
<path d="M1284 9405 c-10 -8 -14 -15 -8 -15 6 0 17 7 24 15 16 19 9 19 -16 0z"/>
<path d="M1393 9363 c4 -3 1 -13 -6 -22 -11 -14 -10 -14 6 -2 20 15 22 31 5
31 -6 0 -8 -3 -5 -7z"/>
<path d="M1292 9277 c-12 -14 -4 -30 18 -35 12 -3 12 -1 3 9 -6 6 -9 18 -6 25
6 18 -1 18 -15 1z"/>
<path d="M1433 9172 c0 -12 5 -22 9 -22 11 0 10 12 -2 30 -7 12 -9 10 -7 -8z"/>
<path d="M1530 9126 c0 -2 7 -7 16 -10 8 -3 12 -2 9 4 -6 10 -25 14 -25 6z"/>
<path d="M1596 9121 c-3 -5 2 -15 12 -22 16 -13 16 -13 2 5 -14 18 -13 19 3
13 11 -4 16 -3 12 3 -8 12 -22 13 -29 1z"/>
<path d="M1468 9091 c-17 -6 -16 -7 2 -18 13 -9 21 -9 26 -2 9 15 -8 28 -28
20z"/>
<path d="M1633 9085 c0 -8 4 -12 9 -9 5 3 6 10 3 15 -9 13 -12 11 -12 -6z"/>
<path d="M1660 9095 c0 -7 30 -13 34 -7 3 4 -4 9 -15 9 -10 1 -19 0 -19 -2z"/>
<path d="M1765 9063 c-15 -12 -16 -14 -3 -10 9 3 18 1 21 -6 2 -6 6 -4 10 6 9
23 -5 28 -28 10z"/>
<path d="M1666 9058 c3 -5 10 -6 15 -3 13 9 11 12 -6 12 -8 0 -12 -4 -9 -9z"/>
<path d="M1708 9063 c6 -2 9 -10 6 -15 -4 -7 -2 -8 5 -4 13 9 5 26 -12 25 -9
0 -8 -2 1 -6z"/>
<path d="M1611 9047 c2 -1 13 -9 24 -17 19 -14 19 -14 6 3 -7 9 -18 17 -24 17
-6 0 -8 -1 -6 -3z"/>
<path d="M1795 9030 c-3 -5 -1 -10 4 -10 6 0 11 5 11 10 0 6 -2 10 -4 10 -3 0
-8 -4 -11 -10z"/>
<path d="M1858 9033 c6 -2 10 -9 6 -14 -3 -5 0 -8 8 -7 7 2 12 -3 10 -10 -1
-8 2 -11 9 -6 9 5 10 2 6 -10 -4 -10 -3 -15 3 -11 6 3 10 10 10 14 0 13 -40
51 -53 50 -9 0 -9 -2 1 -6z"/>
<path d="M1666 9018 c3 -5 10 -6 15 -3 13 9 11 12 -6 12 -8 0 -12 -4 -9 -9z"/>
<path d="M1680 9000 c-9 -6 -10 -10 -3 -10 6 0 15 5 18 10 8 12 4 12 -15 0z"/>
<path d="M1853 8985 c0 -8 4 -12 9 -9 5 3 6 10 3 15 -9 13 -12 11 -12 -6z"/>
<path d="M2022 8978 c-17 -17 5 -43 24 -27 11 9 15 8 20 -4 3 -9 12 -13 20
-10 10 3 12 0 8 -10 -3 -8 -1 -18 5 -22 7 -4 9 1 5 12 -4 14 -1 13 14 -5 13
-14 23 -19 27 -11 10 15 -36 61 -54 54 -8 -3 -24 4 -36 15 -16 15 -24 17 -33
8z m22 -19 c-3 -5 -10 -7 -15 -3 -5 3 -7 10 -3 15 3 5 10 7 15 3 5 -3 7 -10 3
-15z m81 -29 c10 -11 16 -20 13 -20 -3 0 -13 9 -23 20 -10 11 -16 20 -13 20 3
0 13 -9 23 -20z"/>
<path d="M1955 8970 c-4 -6 -11 -7 -17 -4 -7 4 -8 2 -4 -5 6 -9 12 -9 24 1 10
7 19 14 21 15 2 2 -1 3 -7 3 -6 0 -14 -5 -17 -10z"/>
<path d="M2163 8916 c3 -7 0 -20 -6 -27 -10 -11 -9 -11 5 0 15 11 15 41 1 41
-3 0 -3 -6 0 -14z"/>
<path d="M1860 8896 c7 -7 13 -7 20 0 6 6 3 10 -10 10 -13 0 -16 -4 -10 -10z"/>
<path d="M2071 8893 c7 -12 15 -20 18 -17 3 2 -3 12 -13 22 -17 16 -18 16 -5
-5z"/>
<path d="M2347 8779 c7 -7 15 -10 18 -7 3 3 -2 9 -12 12 -14 6 -15 5 -6 -5z"/>
<path d="M2488 8733 c-10 -2 -18 -8 -18 -13 0 -5 7 -7 15 -4 11 5 14 1 9 -12
-5 -18 -5 -18 6 -1 6 10 16 14 23 10 7 -4 6 0 -2 10 -7 9 -14 16 -15 16 0 -1
-9 -3 -18 -6z"/>
<path d="M2427 8719 c7 -7 15 -10 18 -7 3 3 -2 9 -12 12 -14 6 -15 5 -6 -5z"/>
<path d="M2864 9399 c0 -9 5 -15 11 -12 7 2 12 10 12 17 0 7 -5 13 -12 13 -6
0 -11 -8 -11 -18z"/>
<path d="M8907 12294 c-59 -15 -86 -32 -161 -103 -92 -87 -141 -177 -210 -383
-33 -100 -36 -118 -37 -213 0 -108 15 -180 51 -234 49 -77 134 -155 181 -168
66 -17 171 -14 242 7 67 20 78 27 158 109 94 96 127 152 189 326 41 115 57
198 54 277 -6 134 -24 186 -89 256 -104 113 -246 160 -378 126z"/>
<path d="M13795 11744 c-11 -8 -25 -12 -32 -10 -7 3 -12 0 -10 -7 1 -7 -4 -11
-10 -9 -7 1 -13 -1 -13 -6 0 -14 -67 -37 -140 -47 -25 -4 -56 -13 -69 -22 -13
-8 -21 -11 -18 -6 4 5 0 10 -7 10 -8 0 -12 -6 -9 -13 2 -6 -1 -15 -8 -20 -8
-4 -10 -3 -5 4 5 8 2 10 -9 6 -14 -6 -14 -8 2 -21 10 -8 12 -12 6 -8 -7 3 -14
1 -14 -4 -3 -21 -4 -26 -12 -38 -4 -6 -3 -14 3 -18 6 -4 8 -11 5 -16 -4 -5 -1
-9 5 -9 7 0 9 -7 6 -16 -4 -10 -2 -13 6 -8 8 5 9 2 5 -10 -4 -10 -3 -15 3 -11
6 3 10 2 10 -3 0 -5 14 -15 30 -22 17 -7 30 -16 30 -20 0 -9 68 -25 89 -21 8
2 10 -2 5 -11 -6 -10 -4 -10 9 1 9 7 17 10 17 5 0 -5 5 -2 10 6 9 13 10 13 10
0 0 -9 3 -11 8 -5 4 6 18 19 32 30 17 14 21 15 12 3 -11 -14 -11 -16 7 -11 11
3 20 8 19 12 -2 18 3 34 9 28 10 -11 33 13 33 35 0 12 4 17 12 12 8 -5 9 -2 5
10 -4 10 -3 15 3 11 6 -3 14 4 19 17 5 13 21 31 35 42 14 10 23 22 20 27 -3 5
0 9 6 9 6 0 8 5 5 10 -4 6 -1 17 5 25 9 11 9 15 1 15 -6 0 -10 3 -9 8 4 12
-34 62 -42 57 -5 -3 -11 -1 -15 5 -3 5 -11 10 -16 10 -6 0 -7 -4 -4 -10 3 -6
-1 -7 -9 -4 -9 3 -13 10 -10 15 7 12 2 11 -21 -7z m69 -59 c20 -20 2 -67 -22
-58 -10 4 -13 2 -8 -5 5 -8 2 -10 -8 -6 -12 5 -10 10 11 28 33 28 23 50 -18
42 -16 -3 -29 -1 -29 4 0 16 57 12 74 -5z m-84 -5 c0 -5 -8 -10 -17 -10 -15 0
-16 2 -3 10 19 12 20 12 20 0z m-86 -48 c2 -4 -5 -9 -17 -9 -17 -2 -19 0 -7 7
18 12 18 12 24 2z m-46 -38 c0 -17 -3 -22 -8 -13 -5 6 -6 18 -3 26 8 19 11 16
11 -13z m165 -1 c-4 -10 -13 -22 -20 -26 -7 -5 -10 -13 -7 -19 4 -6 3 -9 -2
-6 -12 7 -35 -17 -26 -27 4 -4 -7 -6 -25 -3 -27 4 -30 2 -23 -12 7 -13 4 -16
-12 -15 -22 2 -42 29 -34 48 2 7 5 4 5 -6 1 -11 7 -17 14 -14 6 2 11 9 10 14
-1 6 9 8 22 5 15 -2 25 0 25 7 0 7 -5 9 -12 5 -7 -4 -8 -3 -4 5 4 6 11 9 15 7
4 -3 20 8 37 24 33 33 46 37 37 13z m-196 1 c-3 -3 -12 -4 -19 -1 -8 3 -5 6 6
6 11 1 17 -2 13 -5z m13 -29 c0 -8 5 -15 10 -15 6 0 10 -5 10 -10 0 -6 -7 -6
-18 1 -19 12 -26 39 -10 39 4 0 8 -7 8 -15z m11 -52 c13 -17 13 -17 -6 -3 -11
8 -22 16 -24 17 -2 2 0 3 6 3 6 0 17 -8 24 -17z"/>
<path d="M12137 11506 c-49 -18 -67 -34 -60 -54 9 -27 34 -42 69 -42 18 0 44
-4 57 -9 59 -23 81 15 43 74 -13 20 -56 48 -69 45 -1 -1 -19 -7 -40 -14z m41
-31 c-2 -1 -19 -5 -38 -8 l-35 -6 30 14 c17 7 34 11 38 8 5 -3 7 -6 5 -8z m27
-15 c3 -5 1 -10 -4 -10 -6 0 -11 5 -11 10 0 6 2 10 4 10 3 0 8 -4 11 -10z"/>
<path d="M6755 11045 c-28 -6 -79 -25 -113 -40 -165 -74 -254 -294 -196 -483
14 -47 30 -70 89 -128 107 -106 190 -144 420 -189 257 -51 442 -16 566 108
128 129 151 266 73 430 -65 140 -251 253 -471 287 -38 6 -79 14 -93 17 -49 11
-226 10 -275 -2z"/>
<path d="M1112 10799 c-14 -5 -20 -14 -16 -24 4 -11 2 -14 -9 -10 -16 7 -32
-21 -18 -30 5 -3 7 -14 4 -25 -3 -11 0 -20 6 -20 6 0 10 -3 9 -7 -1 -5 4 -24
11 -43 8 -19 14 -38 15 -42 3 -19 99 -108 117 -108 5 0 7 -4 4 -10 -3 -6 1 -7
10 -4 9 4 22 -1 31 -12 9 -11 13 -13 9 -6 -9 17 5 15 28 -5 15 -13 18 -14 12
-3 -8 13 -7 13 8 1 14 -11 17 -11 17 0 0 11 2 11 10 -1 7 -11 10 -11 10 -2 0
7 5 10 10 7 6 -4 8 -11 4 -16 -3 -6 3 -5 14 2 17 11 24 10 38 -2 11 -9 15 -9
10 -2 -5 10 1 12 26 9 18 -3 33 -5 33 -6 0 -8 46 -7 50 0 4 6 11 8 16 5 5 -4
9 -1 9 5 0 6 5 8 12 4 8 -5 9 -2 5 9 -3 10 -3 17 2 17 4 0 8 7 8 15 0 8 -4 15
-9 15 -4 0 -8 9 -8 20 0 11 -4 20 -10 20 -5 0 -10 5 -10 11 0 16 -42 48 -63
49 -11 0 -15 5 -11 11 4 7 1 10 -7 7 -8 -3 -20 2 -27 11 -8 9 -11 11 -8 4 11
-20 -77 28 -141 78 -35 27 -67 49 -73 49 -5 0 -10 5 -10 11 0 5 -4 7 -10 4 -5
-3 -10 -1 -10 5 0 6 -4 8 -10 5 -5 -3 -10 -1 -10 4 0 6 -5 11 -11 11 -5 0 -8
-4 -5 -8 3 -5 -1 -9 -9 -9 -8 0 -12 3 -10 7 6 9 -17 8 -43 -1z m158 -113 c0
-2 -7 -7 -16 -10 -8 -3 -12 -2 -9 4 6 10 25 14 25 6z m20 -29 c0 -5 -7 -7 -15
-3 -17 6 -20 -5 -5 -20 6 -6 3 -10 -9 -10 -11 0 -18 3 -17 6 2 3 5 12 9 21 5
17 37 22 37 6z m36 1 c4 -7 4 -10 -1 -6 -4 4 -14 0 -22 -10 -13 -15 -13 -15
-3 6 12 25 16 27 26 10z m-26 -57 c2 -1 -1 -6 -8 -13 -18 -18 -14 -32 5 -17
12 10 14 10 9 1 -4 -7 -1 -15 8 -18 9 -3 16 -15 16 -26 0 -10 -5 -16 -10 -13
-6 4 -8 10 -5 15 3 5 0 12 -6 16 -8 4 -9 3 -5 -4 4 -7 2 -12 -4 -12 -7 0 -10
7 -6 18 5 14 4 14 -9 -2 -14 -19 -15 -18 -11 12 2 22 -2 35 -13 42 -13 8 -11
9 9 6 14 -3 27 -5 30 -5z m222 -45 c26 -28 22 -33 -5 -8 -13 12 -28 22 -34 22
-6 0 -13 7 -17 15 -4 12 -2 13 17 2 12 -6 30 -21 39 -31z m-265 28 c-3 -3 -12
-4 -19 -1 -8 3 -5 6 6 6 11 1 17 -2 13 -5z m104 -54 c6 0 7 6 3 13 -4 6 1 5
12 -4 10 -8 29 -14 42 -13 12 0 22 -2 22 -7 0 -4 10 -6 21 -4 12 2 30 0 41 -6
15 -8 24 -7 38 6 13 12 18 13 16 3 -4 -29 -16 -37 -40 -28 -13 5 -27 6 -32 2
-4 -4 -4 -2 -1 4 4 8 -9 11 -41 11 -96 0 -102 1 -101 26 0 12 3 16 6 10 2 -7
9 -13 14 -13z"/>
<path d="M4665 10380 c-4 -6 -10 -8 -15 -5 -4 3 -13 -2 -20 -10 -7 -8 -26 -17
-44 -20 -46 -9 -57 -32 -39 -78 8 -20 21 -37 29 -37 8 0 14 -4 14 -8 0 -5 21
-9 47 -11 25 -1 62 -9 82 -18 49 -21 112 -33 104 -20 -4 6 0 8 10 4 11 -4 17
-1 18 8 1 8 2 21 3 28 6 42 -40 113 -106 162 -15 12 -43 13 -54 2 -4 -4 -12
-7 -18 -7 -6 0 -4 5 4 10 9 6 10 10 3 10 -6 0 -15 -5 -18 -10z m25 -61 c0 -6
-4 -7 -10 -4 -5 3 -10 1 -10 -4 0 -6 -3 -10 -7 -9 -5 1 -25 -1 -46 -6 -34 -6
-38 -10 -33 -29 5 -22 5 -22 -10 -2 -14 19 -13 21 28 38 24 10 50 22 58 26 17
10 30 5 30 -10z m49 2 c10 -7 7 -9 -12 -8 -15 1 -27 5 -27 10 0 10 22 9 39 -2z
m-4 -31 c3 -5 8 -19 10 -29 3 -15 0 -18 -13 -14 -15 6 -16 5 -2 -13 14 -17 13
-18 -1 -7 -9 7 -18 12 -20 10 -3 -1 3 5 12 14 18 17 14 32 -11 42 -12 4 -12 6
2 6 9 1 20 -3 23 -9z m-108 -46 c-3 -3 -12 -4 -19 -1 -8 3 -5 6 6 6 11 1 17
-2 13 -5z"/>
<path d="M8640 10285 c-7 -8 -23 -15 -36 -15 -13 0 -24 -4 -24 -9 0 -8 -37
-24 -52 -22 -4 0 -4 -7 -1 -16 4 -11 3 -14 -5 -9 -7 4 -12 1 -12 -8 0 -15 -12
-21 -33 -17 -5 1 -6 -3 -2 -9 3 -6 11 -7 17 -4 6 4 6 -2 -1 -15 -7 -11 -16
-21 -20 -21 -5 0 -7 -9 -4 -20 3 -11 0 -27 -7 -35 -9 -11 -10 -15 -1 -15 8 0
7 -6 -3 -16 -21 -21 -20 -30 1 -13 15 13 15 12 5 -8 -8 -15 -9 -24 -2 -28 8
-5 8 -11 1 -19 -10 -11 -11 -19 -12 -74 0 -12 -4 -20 -8 -18 -6 4 -7 -28 -1
-44 1 -3 3 -10 4 -15 1 -12 52 -65 61 -65 3 0 3 6 -1 13 -4 6 3 3 16 -8 13
-11 20 -14 16 -7 -9 15 -1 15 24 2 16 -8 18 -8 14 5 -6 14 18 21 50 16 5 -1 6
7 3 18 -4 15 -1 18 12 13 14 -5 14 -3 3 11 -12 14 -11 16 6 12 16 -3 20 1 17
16 -2 10 0 19 6 19 5 0 8 6 7 13 -2 6 2 11 9 10 7 -2 10 6 8 17 -2 12 -1 18 4
16 4 -3 15 8 25 25 9 16 21 29 25 29 4 0 29 20 54 44 25 24 49 41 53 37 4 -3
3 4 0 16 -5 15 -1 25 14 36 18 12 19 15 5 21 -10 4 -14 2 -9 -6 4 -7 3 -8 -5
-4 -6 4 -9 12 -5 17 3 5 9 7 14 4 5 -3 12 0 16 6 4 7 3 10 -2 6 -5 -3 -18 2
-29 10 -16 12 -16 14 -3 10 10 -3 20 -1 24 5 4 6 3 9 -2 5 -5 -3 -18 1 -29 9
-10 8 -13 14 -7 14 7 0 12 8 11 18 0 10 -3 12 -6 5 -2 -7 -9 -13 -14 -13 -4 0
-5 7 -2 17 4 11 3 14 -5 9 -7 -4 -12 -2 -12 3 0 6 -6 10 -12 9 -7 -2 -12 4
-10 12 3 12 1 13 -9 3 -16 -16 -33 -17 -24 -3 8 13 -18 8 -27 -5 -5 -6 -8 -6
-8 2 0 12 -39 11 -60 -2 -10 -6 -12 -4 -7 8 8 21 3 22 -13 2z m-26 -146 c-2
-4 1 -9 7 -11 6 -2 -2 -18 -19 -35 -16 -18 -27 -35 -23 -39 3 -4 0 -4 -7 0 -7
4 -10 12 -7 17 4 5 2 9 -3 9 -6 0 -9 -11 -8 -24 0 -13 6 -21 11 -18 6 3 4 -1
-2 -10 -7 -8 -10 -18 -6 -21 3 -4 1 -7 -5 -7 -6 0 -9 -6 -6 -13 3 -8 -2 -20
-11 -27 -18 -15 -32 -6 -19 12 5 7 9 29 9 50 0 20 4 34 9 30 5 -3 7 2 3 11 -3
10 -3 17 2 17 5 0 8 8 7 17 0 10 6 18 14 18 8 0 16 6 16 13 2 18 2 18 23 18
11 0 18 -3 15 -7z m56 7 c0 -3 -4 -8 -10 -11 -5 -3 -10 -1 -10 4 0 6 5 11 10
11 6 0 10 -2 10 -4z m-28 -43 c-6 -3 -9 -9 -6 -14 3 -6 15 -4 29 5 21 14 24
14 29 0 3 -9 4 -20 0 -25 -3 -5 -2 -15 3 -21 11 -19 13 -39 2 -32 -5 3 -7 9
-4 14 3 5 -3 13 -12 19 -10 5 -18 13 -18 18 0 4 -4 8 -10 8 -5 0 -16 4 -23 9
-10 6 -10 11 -1 22 6 8 15 12 18 8 3 -4 0 -9 -7 -11z m88 3 c0 -3 -4 -8 -10
-11 -5 -3 -10 -1 -10 4 0 6 5 11 10 11 6 0 10 -2 10 -4z m-56 -114 c3 -5 -1
-9 -9 -9 -8 0 -12 4 -9 9 3 4 7 8 9 8 2 0 6 -4 9 -8z m-24 -32 c0 -5 -5 -10
-11 -10 -5 0 -7 5 -4 10 3 6 8 10 11 10 2 0 4 -4 4 -10z m-114 -25 c-13 -10
-15 -15 -6 -15 7 0 11 -3 7 -6 -3 -3 -11 -3 -17 1 -13 8 5 35 24 35 6 0 2 -7
-8 -15z m90 -28 c-3 -21 -37 -70 -43 -63 -4 3 1 14 9 23 8 10 18 26 21 36 7
20 16 23 13 4z m-106 -23 c-8 -9 -8 -19 0 -34 12 -23 8 -36 -8 -26 -12 7 -22
56 -11 56 5 0 6 7 3 15 -5 11 -2 13 10 9 12 -5 14 -10 6 -20z m50 -49 c0 -9
-6 -12 -15 -9 -8 4 -12 10 -9 15 8 14 24 10 24 -6z"/>
<path d="M8583 10134 c4 -4 2 -13 -4 -20 -6 -7 -7 -19 -3 -25 5 -9 11 -7 21 6
17 25 17 32 -4 39 -10 4 -14 4 -10 0z"/>
<path d="M8675 10080 c3 -5 8 -10 11 -10 2 0 4 5 4 10 0 6 -5 10 -11 10 -5 0
-7 -4 -4 -10z"/>
<path d="M1680 10278 c0 -4 -3 -7 -7 -6 -14 3 -63 -25 -63 -36 0 -29 32 -56
63 -55 18 0 46 -4 64 -9 18 -6 41 -8 51 -5 17 4 18 10 12 38 -8 36 -23 55 -56
73 -23 12 -64 12 -64 0z m44 -34 c20 -19 20 -25 1 -18 -8 4 -15 10 -15 16 0 5
-4 6 -10 3 -5 -3 -10 -1 -10 4 0 16 16 13 34 -5z m-49 -4 c-3 -5 -11 -10 -16
-10 -6 0 -7 5 -4 10 3 6 11 10 16 10 6 0 7 -4 4 -10z"/>
<path d="M12580 10053 c-14 -3 -28 -10 -32 -17 -6 -8 -8 -8 -8 1 0 9 -6 7 -19
-4 -11 -9 -17 -21 -14 -26 3 -6 1 -7 -4 -4 -6 4 -17 -1 -24 -10 -12 -15 -12
-16 5 -9 19 6 19 6 3 -12 -20 -22 -22 -36 -4 -27 6 4 5 1 -3 -7 -9 -7 -14 -21
-12 -30 2 -10 -1 -18 -6 -18 -5 0 -8 -13 -7 -30 1 -16 -1 -30 -6 -30 -5 0 -9
-5 -9 -11 0 -6 -15 -31 -32 -57 -18 -26 -32 -50 -30 -54 1 -5 -3 -8 -9 -8 -5
0 -8 -4 -5 -9 3 -5 -2 -12 -11 -15 -12 -5 -14 -9 -5 -18 18 -18 15 -28 -5 -21
-12 4 -10 -1 7 -16 14 -12 19 -20 13 -16 -7 3 -13 1 -13 -4 0 -6 5 -11 11 -11
6 0 9 -9 6 -20 -6 -22 8 -28 16 -7 3 6 6 2 6 -11 1 -16 6 -22 19 -20 9 2 16
-3 14 -9 -1 -8 8 -13 21 -13 13 0 28 -5 34 -11 7 -7 15 -6 26 5 10 11 18 13
22 6 5 -8 15 -6 32 5 14 9 27 14 30 11 3 -3 12 2 20 10 8 8 18 12 23 9 5 -3
16 5 25 17 8 13 19 22 23 21 4 -2 7 2 7 7 0 6 7 15 15 20 8 5 11 12 8 16 -9 9
11 46 21 40 4 -3 8 1 8 8 0 8 -7 12 -16 9 -9 -2 -5 3 9 11 22 14 23 15 5 16
-13 0 -16 3 -8 8 10 6 9 14 -2 35 -9 19 -10 29 -3 33 6 4 8 2 4 -4 -3 -6 -2
-13 3 -17 6 -3 8 4 6 16 -3 13 -10 26 -17 31 -10 6 -10 8 0 8 10 0 10 4 -2 16
-19 18 -21 38 -3 28 6 -4 5 1 -3 12 -9 10 -16 36 -15 57 0 20 -3 37 -7 37 -4
0 -5 7 -2 15 7 16 -34 60 -62 67 -10 3 -30 3 -44 1z m42 -57 c11 -16 9 -56 -2
-56 -6 0 -10 6 -9 13 3 27 -2 37 -21 37 -23 0 -63 -57 -55 -78 3 -7 1 -10 -5
-7 -17 10 -6 64 14 69 10 2 15 10 11 16 -3 6 -3 10 2 9 20 -3 34 2 28 11 -8
13 28 0 37 -14z m15 -100 c4 -72 9 -101 18 -108 6 -5 4 -8 -5 -8 -13 0 -13 -1
0 -10 9 -6 10 -10 3 -10 -19 0 -43 12 -43 22 0 5 3 7 8 5 4 -3 7 5 7 18 0 13
-3 21 -6 19 -3 -2 -5 18 -4 44 1 26 -3 50 -9 54 -6 4 -2 6 9 6 15 -1 20 -10
22 -32z m-111 -37 c1 -16 -1 -27 -4 -24 -3 3 -6 19 -7 35 -1 16 1 27 4 24 3
-3 6 -19 7 -35z m-11 -39 c3 -5 1 -10 -4 -10 -6 0 -11 5 -11 10 0 6 2 10 4 10
3 0 8 -4 11 -10z m8 -105 c18 -20 18 -20 13 5 -3 14 -3 19 0 12 4 -9 10 -10
18 -3 9 8 13 6 13 -4 0 -8 -3 -13 -5 -10 -3 3 -10 -3 -17 -12 -11 -15 -14 -14
-35 10 -13 14 -26 24 -30 22 -4 -2 -7 2 -7 10 0 17 17 6 50 -30z m111 39 c18
-7 22 -34 5 -34 -5 0 -8 4 -4 9 3 5 0 13 -6 17 -11 7 -29 -12 -29 -31 0 -5 4
-5 8 2 5 8 12 7 27 -4 18 -14 18 -15 1 -9 -10 3 -26 1 -34 -6 -12 -10 -14 -10
-8 0 4 7 2 12 -5 12 -8 0 -8 4 1 15 7 8 9 15 4 15 -5 0 -2 5 6 10 18 12 15 11
34 4z m-151 -55 c-8 -8 -13 -7 -18 2 -5 8 -4 10 3 5 7 -4 12 -2 12 5 0 7 3 9
7 6 4 -4 2 -12 -4 -18z m99 -24 c3 -13 1 -22 -3 -19 -9 5 -13 44 -5 44 2 0 6
-11 8 -25z m-72 11 c0 -3 -4 -8 -10 -11 -5 -3 -10 -1 -10 4 0 6 5 11 10 11 6
0 10 -2 10 -4z m35 -15 c3 -5 0 -13 -6 -17 -8 -5 -9 -3 -4 6 6 10 4 12 -9 7
-10 -4 -15 -3 -11 3 8 13 22 13 30 1z"/>
<path d="M4348 10017 c-23 -11 -38 -26 -38 -36 0 -25 32 -51 63 -51 14 0 38
-5 53 -11 70 -26 98 24 46 82 -33 37 -72 42 -124 16z m41 -21 c-2 -2 -15 -7
-29 -10 l-25 -7 25 15 c21 12 42 14 29 2z m54 -16 c9 0 9 -2 1 -8 -6 -4 -14
-14 -18 -22 -3 -9 -5 -6 -2 7 2 12 -2 24 -10 27 -8 3 -14 10 -14 16 0 6 7 4
16 -4 8 -9 21 -16 27 -16z"/>
<path d="M4750 9844 c0 -6 -11 -10 -25 -9 -14 2 -25 0 -25 -5 0 -4 -11 -6 -25
-5 -14 2 -23 -1 -19 -6 3 -5 0 -10 -5 -10 -20 -3 -26 -5 -56 -21 -38 -20 -90
-36 -135 -42 -36 -5 -73 -13 -77 -16 -2 -2 -6 -3 -10 -4 -5 -1 -13 -5 -20 -9
-6 -4 -14 -1 -16 5 -3 8 -6 6 -6 -5 -1 -10 -5 -16 -10 -13 -5 3 -12 -1 -15
-10 -3 -8 -11 -12 -16 -9 -6 4 -9 1 -8 -7 2 -7 -2 -12 -8 -11 -7 1 -9 -8 -6
-22 2 -14 9 -25 16 -25 6 0 4 -5 -4 -10 -9 -6 -10 -10 -3 -10 6 0 15 -9 18
-20 4 -11 11 -18 16 -15 5 4 9 2 9 -2 0 -5 9 -14 21 -21 17 -11 20 -11 13 0
-6 10 -4 10 9 -1 9 -7 17 -10 17 -6 0 4 7 2 15 -5 8 -7 15 -9 15 -5 0 4 6 3
13 -2 13 -11 93 -11 103 0 4 4 13 2 20 -4 10 -9 15 -7 20 5 3 9 10 13 15 10 5
-3 9 -1 9 3 0 5 10 10 22 10 13 1 28 9 34 18 13 17 29 21 18 3 -4 -7 -3 -8 5
-4 6 4 8 12 5 18 -5 8 -1 9 10 5 10 -4 15 -3 11 3 -6 10 108 130 124 130 14 0
34 54 22 58 -6 2 -9 7 -6 12 7 11 -24 42 -36 35 -5 -4 -9 -1 -9 5 0 6 -5 8
-11 4 -6 -3 -15 0 -20 7 -5 8 -9 9 -9 3z m-39 -59 c-18 -8 -38 -15 -45 -15
-19 1 38 29 59 29 14 0 10 -4 -14 -14z m73 -19 c-6 -19 -15 -27 -28 -28 -2 0
-30 -24 -61 -54 -31 -31 -59 -53 -62 -51 -2 3 -16 -6 -29 -18 -15 -14 -34 -22
-46 -20 -12 3 -29 -1 -37 -7 -9 -6 0 4 19 23 25 25 37 31 43 22 4 -7 13 -13
20 -13 7 0 6 4 -3 10 -13 8 -13 11 -1 22 11 11 13 11 6 -1 -5 -9 -3 -12 6 -9
8 3 14 11 14 18 0 7 7 15 15 17 13 4 13 3 0 -6 -9 -7 -11 -11 -3 -11 7 0 16 6
20 13 14 22 100 87 106 80 4 -3 7 0 7 8 0 8 -5 20 -11 26 -9 9 -6 10 10 6 17
-4 20 -10 15 -27z m-134 0 c0 -2 -8 -10 -17 -17 -16 -13 -17 -12 -4 4 13 16
21 21 21 13z m-123 -61 c0 -8 -4 -15 -9 -15 -10 0 -11 14 -1 23 9 10 10 9 10
-8z m-27 -20 c0 -7 -30 -13 -34 -7 -3 4 4 9 15 9 10 1 19 0 19 -2z m5 -25 c-3
-5 -16 -10 -28 -9 -21 0 -21 1 -2 9 28 12 37 12 30 0z m19 -15 c-5 -11 -1 -14
12 -9 16 5 16 4 4 -5 -17 -12 -36 1 -26 18 10 16 16 13 10 -4z m-20 -24 c4 -5
-3 -7 -14 -4 -23 6 -26 13 -6 13 8 0 17 -4 20 -9z"/>
<path d="M4561 9616 c-10 -11 -9 -14 1 -12 14 2 23 15 15 22 -2 2 -10 -2 -16
-10z"/>
<path d="M12400 9520 c-9 -6 -10 -10 -3 -10 6 0 15 5 18 10 8 12 4 12 -15 0z"/>
<path d="M6230 9086 c0 -2 7 -7 16 -10 8 -3 12 -2 9 4 -6 10 -25 14 -25 6z"/>
<path d="M6291 9078 c-1 -22 11 -29 29 -16 12 8 12 9 -2 4 -10 -3 -18 1 -21
12 -4 16 -5 16 -6 0z"/>
<path d="M2010 8498 c0 -6 -7 -8 -15 -4 -8 3 -15 1 -15 -5 0 -6 -4 -7 -10 -4
-5 3 -10 2 -10 -4 0 -6 -7 -8 -15 -5 -8 4 -15 1 -15 -4 0 -6 -16 -16 -35 -23
-41 -15 -53 -45 -34 -80 13 -25 39 -54 39 -44 0 3 10 1 21 -6 17 -9 20 -8 14
2 -6 8 -4 10 6 3 8 -4 23 -7 34 -6 11 1 52 -7 90 -17 59 -16 71 -17 78 -5 4 8
14 14 21 14 27 0 2 77 -44 133 -19 23 -110 69 -110 55z m0 -58 c0 12 2 12 9 2
4 -8 12 -14 17 -15 5 -1 7 -8 6 -16 -3 -13 -1 -13 15 0 16 13 17 13 4 -3 -9
-12 -10 -18 -2 -18 6 0 2 -9 -9 -20 -23 -23 -38 -27 -21 -6 8 10 9 16 1 21 -6
3 -8 11 -5 16 11 17 -5 30 -26 19 -13 -8 -19 -7 -19 0 0 6 -11 3 -25 -6 -14
-9 -25 -12 -25 -6 0 15 38 35 50 27 6 -3 10 0 10 7 0 9 3 9 10 -2 9 -13 10
-13 10 0z m-90 -34 c0 -3 -4 -8 -10 -11 -5 -3 -10 -1 -10 4 0 6 5 11 10 11 6
0 10 -2 10 -4z m33 -53 c-7 -2 -21 -2 -30 0 -10 3 -4 5 12 5 17 0 24 -2 18 -5z"/>
<path d="M2670 7235 c0 -8 4 -15 8 -15 5 0 9 7 9 15 0 8 -4 15 -9 15 -4 0 -8
-7 -8 -15z"/>
<path d="M2674 7182 c1 -15 5 -33 9 -40 5 -6 4 -12 -2 -12 -6 0 -3 -16 6 -37
8 -21 15 -39 14 -40 -5 -12 1 -23 13 -23 20 0 27 27 10 41 -8 6 -12 14 -9 17
3 3 0 11 -6 19 -6 7 -8 13 -4 13 4 0 2 6 -4 14 -7 8 -11 20 -10 28 3 26 -1 48
-10 48 -5 0 -8 -12 -7 -28z m52 -129 c-10 -11 -19 -7 -22 10 -2 15 0 16 12 6
8 -6 12 -14 10 -16z"/>
</g>
</svg>
